<svg version="1.1" xmlns="http://www.w3.org/2000/svg" viewBox="-626.3 -438.0 2835.2 2939.5">
<rect x="-626.3" y="-438.0" width="2835.2" height="2939.5" fill="#202124" />
<polyline points="863.8 -368.0,861.7 -365.9" style="fill:none;stroke:#ff5959;stroke-width:2"/>
<polyline points="196.0 187.0,195.0 189.0,194.0 193.0,193.0 199.0,192.0 212.0,192.0 218.0,193.0 224.0,194.0 226.0,197.0 231.0,199.0 234.0,202.0 235.0,208.0 235.0,210.0 233.0,217.0 225.0,221.0 217.0,222.0 212.0,225.0 202.0,227.0 194.0,227.0 190.0,226.0 182.0,225.0 180.0,222.0 178.0" style="fill:none;stroke:#ffffff;stroke-width:2"/>
<polyline points="276.0 179.0,270.0 180.0,268.0 181.0,263.0 185.0,260.0 187.0,258.0 189.0,257.0 192.0,256.0 194.0,257.0 197.0,259.0 201.0,261.0 204.0,261.0 208.0,259.0 216.0,256.0 220.0,255.0 222.0,253.0 224.0,249.0 227.0,242.0 231.0,240.0 232.0" style="fill:none;stroke:#ffffff;stroke-width:2"/>
<polyline points="284.0 213.0,287.0 214.0,289.0 213.0,300.0 207.0,304.0 204.0,305.0 202.0,307.0 200.0,309.0 196.0,308.0 194.0,304.0 194.0,301.0 195.0,295.0 198.0,288.0 203.0,282.0 209.0,280.0 212.0,279.0 214.0,277.0 219.0,278.0 224.0,281.0 226.0,285.0 227.0,290.0 227.0,297.0 226.0,304.0 223.0,307.0 222.0,313.0 219.0,315.0 217.0,319.0 214.0,321.0 212.0" style="fill:none;stroke:#ffffff;stroke-width:2"/>
<polyline points="339.0 200.0,336.0 203.0,324.0 216.0,322.0 219.0,320.0 221.0,323.0 220.0,327.0 218.0,329.0 216.0,336.0 211.0,347.0 204.0,350.0 202.0,360.0 195.0,363.0 193.0,367.0 192.0,368.0 191.0" style="fill:none;stroke:#ffffff;stroke-width:2"/>
<polyline points="393.0 205.0,397.0 203.0,399.0 201.0,400.0 199.0,402.0 196.0,403.0 193.0,404.0 187.0,405.0 185.0,407.0 180.0,409.0 176.0,411.0 173.0,416.0 168.0,418.0 165.0,426.0 158.0,430.0 155.0,439.0 150.0,447.0 145.0,451.0 143.0,453.0 141.0,456.0 140.0" style="fill:none;stroke:#ffffff;stroke-width:2"/>
<polyline points="395.0 207.0,397.0 208.0,399.0 210.0,405.0 215.0,406.0 218.0,408.0 220.0,407.0 225.0,404.0 229.0,403.0 231.0,399.0 235.0,397.0 238.0,395.0 240.0,397.0 244.0,399.0 246.0,401.0 247.0,408.0 250.0,419.0 255.0,425.0 258.0" style="fill:none;stroke:#ffffff;stroke-width:2"/>
<polyline points="576.9 986.3,567.9 989.3,565.9 990.3,560.9 994.3,558.9 996.3,550.9 1007.3,549.9 1011.3,550.9 1015.3,553.9 1019.3,557.9 1023.3,560.9 1024.3,565.9 1026.3,570.9 1027.3,573.9 1027.3,582.9 1026.3,584.9 1025.3,585.9 1024.3" style="fill:none;stroke:#ffffff;stroke-width:2"/>
<polyline points="608.9 996.3,606.9 1000.3,605.9 1006.3,604.9 1008.3,604.9 1011.3,605.9 1020.3,607.9 1022.3,612.9 1020.3,616.9 1017.3,618.9 1016.3,621.9 1011.3,623.9 1008.3,624.9 1006.3,625.9 1002.3,623.9 1000.3" style="fill:none;stroke:#ffffff;stroke-width:2"/>
<polyline points="637.9 1005.3,636.9 1007.3,634.9 1013.3,630.9 1023.3,631.9 1020.3,633.9 1017.3,636.9 1012.3,640.9 1008.3,645.9 1002.3,648.9 1000.3,650.9 999.3,652.9 1000.3" style="fill:none;stroke:#ffffff;stroke-width:2"/>
<polyline points="665.9 1003.3,663.9 1007.3,662.9 1010.3,660.9 1014.3,659.9 1018.3,658.9 1021.3,657.9 1023.3,656.9 1026.3,658.9 1021.3,661.9 1016.3,663.9 1013.3,664.9 1010.3,669.9 1003.3,674.9 998.3,683.9 990.3,687.9 991.3" style="fill:none;stroke:#ffffff;stroke-width:2"/>
<polyline points="687.9 1009.3,689.9 1011.3,692.9 1010.3,696.9 1009.3,699.9 1008.3,701.9 1007.3,706.9 1004.3,710.9 1001.3,713.9 998.3,715.9 995.3,714.9 992.3,712.9 991.3,709.9 992.3,707.9 993.3,701.9 998.3,698.9 1002.3,697.9 1005.3,696.9 1009.3,697.9 1013.3,699.9 1016.3,702.9 1019.3,705.9 1020.3,707.9 1019.3,710.9 1018.3,712.9 1017.3,715.9 1014.3,718.9 1010.3,720.9 1007.3,723.9 1005.3,725.9 1003.3,724.9 1007.3,722.9 1010.3,721.9 1012.3,724.9 1011.3,728.9 1009.3,731.9 1008.3,737.9 1005.3,744.9 1003.3,746.9 1002.3,750.9 1002.3,752.9 1005.3,751.9 1008.3,750.9 1013.3,753.9 1012.3,758.9 1008.3,760.9 1006.3,775.9 990.3,778.9 987.3,780.9 984.3,783.9 978.3,786.9 974.3,788.9 970.3,784.9 974.3,780.9 981.3,778.9 985.3,773.9 998.3,771.9 1006.3,769.9 1016.3,769.9 1021.3,768.9 1024.3" style="fill:none;stroke:#ffffff;stroke-width:2"/>
<polyline points="766.9 1002.3,769.9 1000.3,771.9 999.3,778.9 999.3,796.9 1000.3,798.9 1000.3" style="fill:none;stroke:#ffffff;stroke-width:2"/>
<polyline points="843.9 984.3,842.9 987.3,841.9 992.3,839.9 998.3,838.9 1002.3,834.9 1015.3,832.9 1023.3,830.9 1029.3,829.9 1031.3,828.9 1035.3,829.9 1032.3,830.9 1027.3" style="fill:none;stroke:#ffffff;stroke-width:2"/>
<polyline points="834.9 983.3,838.9 981.3,842.9 980.3,846.9 980.3,853.9 979.3,857.9 979.3,862.9 980.3,866.9 981.3,865.9 986.3,862.9 989.3,861.9 991.3,857.9 995.3,851.9 1002.3,850.9 1005.3,850.9 1008.3,851.9 1012.3,853.9 1014.3,858.9 1018.3,861.9 1019.3,865.9 1021.3,867.9 1022.3" style="fill:none;stroke:#ffffff;stroke-width:2"/>
<polyline points="908.9 1000.3,907.9 998.3,905.9 995.3,901.9 995.3,899.9 996.3,896.9 998.3,892.9 1001.3,890.9 1003.3,889.9 1005.3,888.9 1008.3,888.9 1011.3,889.9 1014.3,891.9 1016.3,894.9 1016.3,899.9 1015.3,903.9 1012.3,906.9 1008.3,908.9 1005.3,908.9 1002.3,907.9 998.3,906.9 996.3" style="fill:none;stroke:#ffffff;stroke-width:2"/>
<polyline points="941.9 1009.3,940.9 1007.3,938.9 1005.3,935.9 1004.3,933.9 1003.3,930.9 1004.3,925.9 1005.3,923.9 1006.3,920.9 1009.3,919.9 1012.3,920.9 1016.3,923.9 1018.3,925.9 1019.3,928.9 1019.3,933.9 1018.3,935.9 1017.3,942.9 1011.3,943.9 1009.3,941.9 1004.3,939.9 1003.3,937.9 1002.3" style="fill:none;stroke:#ffffff;stroke-width:2"/>
<polyline points="955.9 1004.3,954.9 1008.3,953.9 1011.3,956.9 1011.3,959.9 1009.3,961.9 1008.3,964.9 1005.3,967.9 1003.3,972.9 1000.3,974.9 1003.3,975.9 1007.3,978.9 1007.3,981.9 1006.3,983.9 1005.3,988.9 1003.3,992.9 1001.3,995.9 999.3,997.9 998.3,1001.9 998.3,1003.9 1000.3,1005.9 1003.3,1008.9 1007.3,1009.9 1008.3" style="fill:none;stroke:#ffffff;stroke-width:2"/>
<polyline points="1039.9 978.3,1035.9 979.3,1032.9 982.3,1031.9 985.3" style="fill:none;stroke:#ffffff;stroke-width:2"/>
<polyline points="1031.9 1025.3,1029.9 1026.3,1031.9 1027.3,1035.9 1025.3" style="fill:none;stroke:#ffffff;stroke-width:2"/>
<polyline points="1101.9 976.3,1099.9 979.3,1099.9 984.3,1098.9 986.3,1097.9 995.3,1095.9 1003.3,1092.9 1014.3,1091.9 1020.3,1090.9 1025.3,1089.9 1027.3,1090.9 1027.3" style="fill:none;stroke:#ffffff;stroke-width:2"/>
<polyline points="1101.9 977.3,1103.9 975.3,1105.9 974.3,1107.9 972.3,1112.9 971.3,1121.9 974.3,1124.9 976.3,1125.9 979.3,1125.9 982.3,1124.9 986.3,1121.9 990.3,1119.9 991.3,1117.9 993.3,1114.9 995.3,1106.9 1000.3,1105.9 1002.3,1104.9 1007.3,1105.9 1010.3,1107.9 1013.3,1112.9 1020.3,1114.9 1022.3,1119.9 1026.3,1121.9 1027.3" style="fill:none;stroke:#ffffff;stroke-width:2"/>
<polyline points="1163.9 1009.3,1162.9 1005.3,1161.9 1003.3,1159.9 1002.3,1155.9 1002.3,1151.9 1003.3,1146.9 1005.3,1143.9 1006.3,1141.9 1008.3,1136.9 1015.3,1137.9 1019.3,1138.9 1021.3,1141.9 1023.3,1147.9 1024.3,1151.9 1023.3,1156.9 1021.3,1158.9 1020.3,1160.9 1018.3,1164.9 1011.3,1164.9 1006.3,1163.9 1004.3,1161.9 1001.3" style="fill:none;stroke:#ffffff;stroke-width:2"/>
<polyline points="1196.9 1010.3,1193.9 1007.3,1190.9 1007.3,1186.9 1008.3,1183.9 1008.3,1181.9 1009.3,1175.9 1010.3,1171.9 1013.3,1167.9 1015.3,1165.9 1018.3,1164.9 1020.3,1165.9 1024.3,1167.9 1025.3,1170.9 1026.3,1174.9 1026.3,1178.9 1024.3,1183.9 1021.3,1185.9 1019.3,1188.9 1015.3,1189.9 1012.3,1189.9 1009.3,1188.9 1004.3,1186.9 1003.3" style="fill:none;stroke:#ffffff;stroke-width:2"/>
<polyline points="1207.9 1006.3,1204.9 1007.3,1203.9 1009.3,1203.9 1014.3,1208.9 1013.3,1211.9 1011.3,1216.9 1008.3,1218.9 1007.3,1222.9 1006.3,1224.9 1008.3,1224.9 1011.3,1223.9 1013.3,1225.9 1014.3,1228.9 1012.3,1232.9 1009.3,1237.9 1007.3,1240.9 1005.3,1245.9 1004.3,1248.9 1005.3,1250.9 1007.3,1251.9 1009.3,1253.9 1015.3,1254.9 1017.3" style="fill:none;stroke:#ffffff;stroke-width:2"/>
<polyline points="1280.9 972.3,1278.9 975.3,1279.9 977.3,1278.9 981.3,1278.9 986.3,1277.9 990.3,1277.9 993.3,1275.9 1001.3,1273.9 1007.3,1273.9 1010.3,1271.9 1015.3,1271.9 1018.3,1270.9 1021.3,1269.9 1024.3" style="fill:none;stroke:#ffffff;stroke-width:2"/>
<polyline points="1312.9 974.3,1312.9 978.3,1311.9 988.3,1311.9 991.3,1310.9 998.3,1309.9 1001.3,1309.9 1008.3,1308.9 1011.3,1308.9 1017.3,1307.9 1021.3,1307.9 1025.3,1306.9 1027.3,1305.9 1028.3" style="fill:none;stroke:#ffffff;stroke-width:2"/>
<polyline points="1310.9 980.3,1314.9 981.3,1319.9 983.3,1322.9 984.3,1329.9 987.3,1335.9 990.3,1338.9 992.3,1340.9 994.3,1343.9 998.3,1344.9 1001.3,1343.9 1006.3,1341.9 1008.3,1332.9 1016.3,1329.9 1018.3,1322.9 1021.3,1315.9 1023.3,1310.9 1025.3,1307.9 1025.3,1305.9 1026.3" style="fill:none;stroke:#ffffff;stroke-width:2"/>
<polyline points="557.9 1068.3,556.9 1070.3,556.9 1073.3,555.9 1079.3,555.9 1082.3,554.9 1088.3,554.9 1091.3,553.9 1096.3,553.9 1100.3,552.9 1105.3,552.9 1101.3,553.9 1096.3,555.9 1089.3,558.9 1083.3,560.9 1078.3,562.9 1075.3,565.9 1071.3,567.9 1070.3,570.9 1070.3,574.9 1072.3,577.9 1076.3,578.9 1078.3,580.9 1085.3,581.9 1090.3,580.9 1096.3,580.9 1100.3,581.9 1103.3,582.9 1102.3" style="fill:none;stroke:#ffffff;stroke-width:2"/>
<polyline points="608.9 1082.3,609.9 1080.3,606.9 1079.3,602.9 1079.3,600.9 1080.3,597.9 1081.3,594.9 1083.3,592.9 1085.3,591.9 1088.3,592.9 1095.3,594.9 1097.3,598.9 1098.3,601.9 1096.3,605.9 1094.3,607.9 1092.3,612.9 1086.3,612.9 1090.3,613.9 1103.3,613.9 1106.3,614.9 1112.3,615.9 1114.3,619.9 1119.3,624.9 1118.3" style="fill:none;stroke:#ffffff;stroke-width:2"/>
<polyline points="640.9 1088.3,641.9 1091.3,640.9 1093.3,639.9 1096.3,638.9 1102.3,639.9 1105.3,643.9 1105.3,645.9 1103.3,648.9 1099.3,650.9 1095.3,651.9 1092.3,653.9 1090.3,654.9 1094.3,655.9 1097.3,657.9 1099.3,661.9 1099.3,665.9 1097.3,669.9 1094.3,671.9 1093.3,674.9 1091.3,676.9 1090.3,679.9 1091.3,680.9 1093.3,681.9 1097.3,682.9 1100.3,683.9 1105.3,684.9 1108.3" style="fill:none;stroke:#ffffff;stroke-width:2"/>
<polyline points="692.9 1103.3,696.9 1103.3,699.9 1101.3,704.9 1099.3,706.9 1097.3,711.9 1094.3,715.9 1091.3,716.9 1089.3,718.9 1083.3,717.9 1081.3,715.9 1080.3,711.9 1081.3,708.9 1083.3,704.9 1087.3,703.9 1089.3,702.9 1092.3,700.9 1104.3,700.9 1107.3,703.9 1111.3,708.9 1114.3,711.9 1115.3,715.9 1115.3,724.9 1114.3,733.9 1111.3,737.9 1109.3,741.9 1106.3,743.9 1104.3" style="fill:none;stroke:#ffffff;stroke-width:2"/>
<polyline points="544.9 1177.3,545.9 1174.3,547.9 1169.3,550.9 1163.3,551.9 1159.3,555.9 1152.3,557.9 1148.3,561.9 1143.3,562.9 1141.3,564.9 1139.3,565.9 1137.3,567.9 1139.3,568.9 1142.3,569.9 1144.3,569.9 1149.3,570.9 1155.3,570.9 1158.3,571.9 1161.3,571.9 1166.3,572.9 1175.3,572.9 1180.3,573.9 1183.3" style="fill:none;stroke:#ffffff;stroke-width:2"/>
<polyline points="550.9 1167.3,552.9 1166.3,557.9 1165.3,559.9 1164.3,562.9 1164.3,568.9 1162.3,573.9 1161.3,577.9 1160.3,582.9 1160.3,583.9 1161.3" style="fill:none;stroke:#ffffff;stroke-width:2"/>
<polyline points="594.9 1149.3,595.9 1146.3,597.9 1150.3,597.9 1154.3,598.9 1161.3,598.9 1167.3,599.9 1177.3,600.9 1180.3,601.9 1184.3,603.9 1183.3,605.9 1179.3,607.9 1171.3,607.9 1167.3,608.9 1162.3,610.9 1154.3,612.9 1148.3,613.9 1143.3" style="fill:none;stroke:#ffffff;stroke-width:2"/>
<polyline points="639.9 1167.3,641.9 1165.3,640.9 1161.3,638.9 1158.3,635.9 1156.3,633.9 1154.3,630.9 1154.3,626.9 1155.3,623.9 1158.3,622.9 1160.3,620.9 1166.3,621.9 1169.3,623.9 1173.3,626.9 1176.3,629.9 1177.3,633.9 1176.3,638.9 1175.3,640.9 1173.3,645.9 1170.3,647.9 1167.3,649.9 1166.3,648.9 1168.3,647.9 1172.3,647.9 1175.3,648.9 1181.3,650.9 1183.3,653.9 1183.3,656.9 1182.3,657.9 1180.3,659.9 1179.3,662.9 1174.3,664.9 1168.3,665.9 1162.3,666.9 1159.3,668.9 1150.3,669.9 1146.3,670.9 1143.3,671.9 1141.3,673.9 1144.3,672.9 1147.3,672.9 1150.3,671.9 1157.3,669.9 1164.3,668.9 1167.3,666.9 1175.3,665.9 1178.3,665.9 1180.3" style="fill:none;stroke:#ffffff;stroke-width:2"/>
<polyline points="663.9 1169.3,667.9 1168.3,672.9 1166.3,676.9 1164.3,680.9 1163.3,688.9 1160.3,694.9 1157.3,697.9 1156.3,701.9 1155.3,704.9 1154.3" style="fill:none;stroke:#ffffff;stroke-width:2"/>
<polyline points="712.9 1160.3,709.9 1159.3,704.9 1160.3,701.9 1159.3,693.9 1163.3,690.9 1167.3,688.9 1172.3,688.9 1175.3,689.9 1178.3,693.9 1179.3,696.9 1178.3,698.9 1177.3,701.9 1175.3,705.9 1171.3,710.9 1165.3,712.9 1161.3,714.9 1159.3,715.9 1157.3,715.9 1161.3,716.9 1173.3,717.9 1177.3,719.9 1183.3,721.9 1184.3,724.9 1183.3,727.9 1181.3,729.9 1179.3,733.9 1176.3,735.9 1174.3,736.9 1172.3,738.9 1171.3,741.9 1169.3,746.9 1167.3,745.9 1172.3,743.9 1174.3,740.9 1180.3,736.9 1187.3,735.9 1189.3,739.9 1187.3,746.9 1182.3,757.9 1175.3,763.9 1171.3,775.9 1164.3,781.9 1161.3,785.9 1158.3,793.9 1154.3,797.9 1152.3" style="fill:none;stroke:#ffffff;stroke-width:2"/>
<polyline points="568.9 1214.3,564.9 1213.3,558.9 1215.3,554.9 1217.3,552.9 1219.3,548.9 1222.3,547.9 1224.3,545.9 1229.3,544.9 1231.3,544.9 1236.3,546.9 1240.3,551.9 1245.3,554.9 1246.3,558.9 1247.3,561.9 1248.3,565.9 1247.3,569.9 1247.3,571.9 1246.3,574.9 1245.3,575.9 1244.3" style="fill:none;stroke:#ffffff;stroke-width:2"/>
<polyline points="585.9 1212.3,585.9 1216.3,586.9 1225.3,586.9 1228.3,587.9 1232.3,589.9 1238.3,590.9 1240.3,594.9 1239.3,596.9 1237.3,599.9 1233.3,603.9 1234.3,604.9 1236.3,606.9 1239.3,608.9 1243.3,609.9 1247.3,610.9 1249.3,612.9 1249.3" style="fill:none;stroke:#ffffff;stroke-width:2"/>
<polyline points="638.9 1230.3,637.9 1228.3,634.9 1228.3,632.9 1229.3,628.9 1230.3,626.9 1232.3,624.9 1235.3,624.9 1238.3,626.9 1239.3,629.9 1238.3,631.9 1237.3,634.9 1236.3,636.9 1234.3,639.9 1233.3,640.9 1238.3,641.9 1242.3,642.9 1244.3,648.9 1244.3,650.9 1242.3" style="fill:none;stroke:#ffffff;stroke-width:2"/>
<polyline points="662.9 1227.3,662.9 1231.3,661.9 1233.3,660.9 1237.3,663.9 1236.3,665.9 1235.3,676.9 1229.3,679.9 1227.3,682.9 1226.3,684.9 1226.3" style="fill:none;stroke:#ffffff;stroke-width:2"/>
<polyline points="701.9 1230.3,699.9 1228.3,694.9 1228.3,691.9 1229.3,689.9 1230.3,684.9 1233.3,683.9 1236.3,685.9 1238.3,689.9 1237.3,693.9 1235.3,696.9 1233.3,699.9 1232.3,701.9 1236.3,701.9 1239.3,702.9 1242.3,705.9 1244.3" style="fill:none;stroke:#ffffff;stroke-width:2"/>
<polyline points="732.9 1229.3,730.9 1228.3,726.9 1229.3,724.9 1230.3,721.9 1232.3,720.9 1235.3,718.9 1239.3,719.9 1241.3,721.9 1244.3,724.9 1245.3,727.9 1245.3,729.9 1244.3,737.9 1238.3,740.9 1234.3" style="fill:none;stroke:#ffffff;stroke-width:2"/>
<polyline points="756.9 1204.3,756.9 1210.3,755.9 1218.3,754.9 1223.3,753.9 1227.3,752.9 1229.3,751.9 1234.3,750.9 1236.3,749.9 1238.3" style="fill:none;stroke:#ffffff;stroke-width:2"/>
<polyline points="748.9 1237.3,751.9 1236.3,755.9 1235.3,758.9 1234.3,762.9 1234.3,766.9 1233.3,769.9 1233.3,775.9 1232.3" style="fill:none;stroke:#ffffff;stroke-width:2"/>
<polyline points="780.9 1232.3,783.9 1233.3,788.9 1230.3,792.9 1227.3,797.9 1222.3,795.9 1220.3,791.9 1221.3,789.9 1222.3,785.9 1225.3,783.9 1227.3,780.9 1231.3,778.9 1235.3,777.9 1238.3,777.9 1241.3,778.9 1243.3,780.9 1244.3,785.9 1244.3,787.9 1243.3,792.9 1241.3,794.9 1239.3,797.9 1237.3,802.9 1234.3,805.9 1236.3,805.9 1239.3,806.9 1241.3,807.9 1245.3,811.9 1242.3,815.9 1238.3,821.9 1233.3,826.9 1229.3,830.9 1226.3,832.9 1224.3,834.9 1223.3,835.9 1224.3" style="fill:none;stroke:#ffffff;stroke-width:2"/>
<polyline points="895.9 1207.3,891.9 1208.3,887.9 1210.3,884.9 1212.3,881.9 1213.3,879.9 1214.3,876.9 1217.3,874.9 1220.3,873.9 1224.3,874.9 1227.3,876.9 1230.3,879.9 1233.3,881.9 1236.3,883.9 1237.3,884.9 1239.3,880.9 1245.3,875.9 1249.3,868.9 1253.3,860.9 1257.3,853.9 1259.3,849.9 1260.3,847.9 1261.3,850.9 1257.3,853.9 1255.3,861.9 1251.3" style="fill:none;stroke:#ffffff;stroke-width:2"/>
<polyline points="897.9 1247.3,901.9 1246.3,903.9 1245.3,905.9 1243.3,907.9 1242.3,912.9 1238.3,916.9 1234.3,917.9 1232.3,919.9 1229.3,920.9 1227.3,918.9 1224.3,915.9 1224.3,911.9 1225.3,905.9 1229.3,901.9 1233.3,896.9 1239.3,896.9 1244.3,897.9 1246.3,900.9 1248.3,907.9 1250.3,909.9 1249.3,916.9 1246.3,922.9 1241.3,924.9 1239.3,929.9 1233.3,931.9 1231.3,935.9 1225.3,936.9 1223.3,940.9 1219.3,942.9 1215.3,945.9 1212.3,946.9 1210.3,948.9 1209.3,949.9 1207.3,950.9 1214.3,947.9 1224.3,944.9 1232.3,942.9 1235.3,938.9 1243.3,937.9 1246.3,935.9 1251.3,934.9 1253.3,934.9 1257.3,933.9 1259.3" style="fill:none;stroke:#ffffff;stroke-width:2"/>
<polyline points="930.9 1235.3,934.9 1235.3,943.9 1234.3,948.9 1233.3,958.9 1230.3,960.9 1229.3,963.9 1228.3,965.9 1227.3" style="fill:none;stroke:#ffffff;stroke-width:2"/>
<polyline points="982.9 1213.3,983.9 1210.3,981.9 1214.3,967.9 1246.3,966.9 1249.3,965.9 1254.3,964.9 1256.3,964.9 1259.3,965.9 1261.3" style="fill:none;stroke:#ffffff;stroke-width:2"/>
<polyline points="957.9 1236.3,962.9 1234.3,968.9 1233.3,971.9 1232.3,978.9 1231.3,984.9 1230.3,988.9 1230.3,992.9 1229.3,995.9 1229.3,998.9 1229.3" style="fill:none;stroke:#ffffff;stroke-width:2"/>
<polyline points="1011.9 1229.3,1012.9 1227.3,1011.9 1230.3,1010.9 1234.3,1009.9 1239.3,1008.9 1245.3,1007.9 1248.3,1004.9 1255.3,1003.9 1258.3" style="fill:none;stroke:#ffffff;stroke-width:2"/>
<polyline points="1025.9 1237.3,1023.9 1240.3,1021.9 1242.3,1019.9 1246.3,1018.9 1249.3,1019.9 1253.3,1021.9 1252.3,1025.9 1251.3,1030.9 1248.3,1033.9 1247.3,1036.9 1245.3,1041.9 1243.3,1044.9 1242.3,1047.9 1242.3,1050.9 1243.3,1051.9 1247.3,1051.9 1251.3,1050.9 1255.3" style="fill:none;stroke:#ffffff;stroke-width:2"/>
<polyline points="1078.9 1237.3,1071.9 1238.3,1067.9 1240.3,1063.9 1243.3,1060.9 1245.3,1059.9 1248.3,1058.9 1250.3,1059.9 1253.3,1060.9 1255.3,1061.9 1258.3,1063.9 1261.3,1063.9 1264.3,1062.9 1267.3,1060.9 1269.3,1057.9 1271.3,1053.9 1273.3,1050.9 1274.3,1048.9 1275.3,1045.9 1275.3,1048.9 1273.3,1053.9 1272.3,1060.9 1270.3,1064.9 1268.3,1074.9 1265.3,1078.9 1263.3,1089.9 1257.3,1094.9 1253.3,1097.9 1249.3" style="fill:none;stroke:#ffffff;stroke-width:2"/>
<polyline points="1121.9 1230.3,1114.9 1231.3,1109.9 1233.3,1106.9 1234.3,1098.9 1237.3,1096.9 1239.3,1095.9 1241.3,1099.9 1244.3,1101.9 1245.3,1105.9 1246.3,1112.9 1249.3,1118.9 1251.3,1122.9 1253.3,1122.9 1257.3,1118.9 1260.3,1115.9 1261.3,1107.9 1264.3,1100.9 1266.3,1097.9 1267.3,1094.9 1267.3,1090.9 1268.3" style="fill:none;stroke:#ffffff;stroke-width:2"/>
<polyline points="1059.9 1256.3,1061.9 1255.3,1062.9 1253.3,1064.9 1252.3,1066.9 1249.3,1069.9 1246.3,1074.9 1240.3" style="fill:none;stroke:#ffffff;stroke-width:2"/>
<polyline points="511.7 1735.4,512.7 1738.4,512.7 1743.4,513.7 1780.4" style="fill:none;stroke:#ffffff;stroke-width:2"/>
<polyline points="509.7 1737.4,512.7 1735.4,516.7 1734.4,521.7 1734.4,527.7 1735.4,530.7 1737.4,532.7 1739.4,533.7 1742.4,533.7 1745.4,530.7 1749.4,526.7 1752.4,524.7 1753.4,522.7 1755.4,518.7 1756.4,515.7 1757.4,513.7 1757.4" style="fill:none;stroke:#ffffff;stroke-width:2"/>
<polyline points="543.7 1758.4,543.7 1763.4,542.7 1772.4,541.7 1776.4,542.7 1773.4,543.7 1769.4,544.7 1766.4,547.7 1761.4,550.7 1755.4,553.7 1751.4,556.7 1748.4,558.7 1747.4" style="fill:none;stroke:#ffffff;stroke-width:2"/>
<polyline points="579.7 1752.4,569.7 1753.4,565.7 1755.4,563.7 1757.4,564.7 1761.4,566.7 1763.4,569.7 1765.4,573.7 1765.4,576.7 1762.4,578.7 1758.4,577.7 1755.4,575.7 1753.4,572.7 1754.4" style="fill:none;stroke:#ffffff;stroke-width:2"/>
<polyline points="607.7 1740.4,604.7 1741.4,602.7 1742.4,599.7 1744.4,598.7 1746.4,596.7 1749.4,595.7 1751.4,592.7 1758.4,591.7 1764.4,591.7 1768.4,589.7 1774.4,589.7 1778.4,587.7 1784.4,585.7 1791.4,584.7 1793.4,582.7 1796.4,580.7 1794.4,580.7 1791.4,581.7 1789.4" style="fill:none;stroke:#ffffff;stroke-width:2"/>
<polyline points="617.7 1752.4,616.7 1756.4,615.7 1762.4,613.7 1767.4,612.7 1770.4,611.7 1775.4,610.7 1778.4,610.7 1780.4" style="fill:none;stroke:#ffffff;stroke-width:2"/>
<polyline points="636.7 1730.4,635.7 1736.4,634.7 1741.4,631.7 1748.4,629.7 1753.4,628.7 1757.4,625.7 1764.4,623.7 1770.4,622.7 1776.4,623.7 1778.4,623.7 1780.4" style="fill:none;stroke:#ffffff;stroke-width:2"/>
<polyline points="635.7 1767.4,638.7 1766.4,644.7 1765.4,648.7 1764.4,651.7 1763.4,655.7 1762.4,658.7 1761.4,660.7 1759.4,661.7 1757.4,663.7 1755.4,663.7 1751.4,661.7 1748.4,658.7 1747.4,654.7 1748.4,649.7 1751.4,644.7 1755.4,642.7 1760.4,642.7 1763.4,643.7 1768.4,645.7 1771.4,647.7 1773.4,653.7 1777.4,659.7 1780.4,664.7 1781.4,667.7 1780.4,669.7 1778.4,668.7 1777.4" style="fill:none;stroke:#ffffff;stroke-width:2"/>
<polyline points="597.7 1758.4,600.7 1758.4,605.7 1757.4,608.7 1756.4,615.7 1756.4,618.7 1755.4,623.7 1755.4,624.7 1754.4" style="fill:none;stroke:#ffffff;stroke-width:2"/>
<polyline points="726.7 1742.4,722.7 1743.4,720.7 1745.4,717.7 1749.4,716.7 1752.4,716.7 1758.4,718.7 1762.4,719.7 1765.4,721.7 1767.4,722.7 1769.4,722.7 1773.4,720.7 1775.4,715.7 1777.4,710.7 1778.4,707.7 1779.4,703.7 1780.4,705.7 1779.4" style="fill:none;stroke:#ffffff;stroke-width:2"/>
<polyline points="739.7 1770.4,741.7 1769.4,744.7 1768.4,746.7 1767.4,749.7 1766.4,754.7 1764.4,756.7 1763.4,758.7 1760.4,755.7 1758.4,751.7 1758.4,747.7 1760.4,745.7 1762.4,744.7 1764.4,745.7 1770.4,748.7 1772.4,753.7 1774.4,757.7 1774.4,761.7 1772.4,765.7 1769.4,769.7 1764.4,771.7 1761.4,774.7 1754.4,775.7 1751.4,780.7 1737.4,781.7 1732.4,783.7 1730.4,784.7 1728.4,785.7 1731.4,784.7 1736.4,782.7 1743.4,780.7 1751.4,777.7 1762.4,777.7 1765.4,776.7 1769.4,776.7 1772.4,776.7 1774.4" style="fill:none;stroke:#ffffff;stroke-width:2"/>
<polyline points="772.7 1759.4,776.7 1759.4,789.7 1758.4,795.7 1758.4,799.7 1757.4" style="fill:none;stroke:#ffffff;stroke-width:2"/>
<polyline points="808.7 1737.4,807.7 1742.4,805.7 1749.4,805.7 1752.4,804.7 1755.4,803.7 1760.4,802.7 1768.4,801.7 1771.4,801.7 1773.4" style="fill:none;stroke:#ffffff;stroke-width:2"/>
<polyline points="787.7 1759.4,790.7 1759.4,792.7 1758.4,796.7 1758.4,800.7 1757.4,802.7 1756.4,806.7 1756.4,809.7 1755.4,814.7 1754.4" style="fill:none;stroke:#ffffff;stroke-width:2"/>
<polyline points="829.7 1752.4,829.7 1758.4,828.7 1760.4,828.7 1763.4,827.7 1765.4,827.7 1769.4,826.7 1773.4" style="fill:none;stroke:#ffffff;stroke-width:2"/>
<polyline points="836.7 1757.4,836.7 1761.4,835.7 1766.4,835.7 1770.4,837.7 1772.4,842.7 1770.4,844.7 1769.4,847.7 1768.4,851.7 1768.4,853.7 1769.4,854.7 1771.4,853.7 1774.4,853.7 1777.4,854.7 1782.4" style="fill:none;stroke:#ffffff;stroke-width:2"/>
<polyline points="879.7 1761.4,874.7 1762.4,872.7 1763.4,870.7 1765.4,868.7 1768.4,870.7 1770.4,875.7 1769.4,878.7 1768.4,880.7 1766.4,877.7 1771.4,875.7 1774.4,873.7 1776.4,870.7 1781.4,867.7 1785.4,864.7 1791.4,866.7 1790.4,869.7 1788.4,873.7 1785.4,875.7 1783.4" style="fill:none;stroke:#ffffff;stroke-width:2"/>
<polyline points="908.7 1753.4,904.7 1754.4,902.7 1755.4,899.7 1758.4,896.7 1762.4,897.7 1766.4,899.7 1768.4,900.7 1771.4,897.7 1773.4,895.7 1774.4,890.7 1777.4,883.7 1781.4,881.7 1782.4,878.7 1784.4,881.7 1783.4,883.7 1782.4,889.7 1780.4" style="fill:none;stroke:#ffffff;stroke-width:2"/>
<polyline points="921.7 1780.4,918.7 1782.4,914.7 1786.4,916.7 1787.4,919.7 1786.4,922.7 1784.4,923.7 1783.4" style="fill:none;stroke:#ffffff;stroke-width:2"/>
<polyline points="945.7 1782.4,944.7 1779.4,942.7 1780.4,939.7 1783.4,941.7 1785.4,943.7 1786.4,946.7 1786.4,948.7 1785.4,957.7 1780.4,958.7 1778.4" style="fill:none;stroke:#ffffff;stroke-width:2"/>
<polyline points="977.7 1784.4,975.7 1782.4,971.7 1783.4,970.7 1786.4,972.7 1789.4,977.7 1790.4,979.7 1789.4,982.7 1787.4" style="fill:none;stroke:#ffffff;stroke-width:2"/>
<polyline points="1167.9 1263.3,1165.9 1261.3,1163.9 1262.3,1159.9 1263.3,1157.9 1264.3,1154.9 1266.3,1156.9 1268.3,1160.9 1268.3,1161.9 1267.3" style="fill:none;stroke:#ffffff;stroke-width:2"/>
<polyline points="1188.9 1261.3,1186.9 1260.3,1189.9 1262.3,1192.9 1261.3,1194.9 1259.3,1194.9 1257.3" style="fill:none;stroke:#ffffff;stroke-width:2"/>
<polyline points="1211.9 1264.3,1213.9 1262.3,1218.9 1265.3" style="fill:none;stroke:#ffffff;stroke-width:2"/>
<polyline points="514.7 1812.4,514.7 1816.4,513.7 1824.4,511.7 1838.4,509.7 1844.4,508.7 1849.4,507.7 1853.4,506.7 1859.4,507.7 1862.4,510.7 1863.4,512.7 1864.4,515.7 1864.4,535.7 1863.4,537.7 1862.4,540.7 1861.4,542.7 1860.4,544.7 1859.4" style="fill:none;stroke:#ffffff;stroke-width:2"/>
<polyline points="560.7 1835.4,556.7 1836.4,554.7 1837.4,551.7 1839.4,549.7 1842.4,546.7 1847.4,546.7 1850.4,549.7 1856.4,555.7 1854.4,557.7 1853.4,561.7 1849.4,563.7 1845.4,562.7 1841.4,559.7 1839.4,557.7 1839.4" style="fill:none;stroke:#ffffff;stroke-width:2"/>
<polyline points="576.7 1819.4,578.7 1817.4,579.7 1819.4,578.7 1822.4,577.7 1827.4,575.7 1834.4,575.7 1837.4,573.7 1843.4,572.7 1848.4,572.7 1852.4,575.7 1855.4,577.7 1851.4,579.7 1848.4,581.7 1846.4,585.7 1844.4,585.7 1850.4,584.7 1855.4,582.7 1859.4,579.7 1859.4" style="fill:none;stroke:#ffffff;stroke-width:2"/>
<polyline points="601.7 1822.4,601.7 1825.4,602.7 1840.4,602.7 1845.4,601.7 1854.4,601.7 1857.4,599.7 1855.4,602.7 1853.4,606.7 1853.4,608.7 1855.4,609.7 1858.4,608.7 1861.4,605.7 1863.4,603.7 1864.4,599.7 1865.4" style="fill:none;stroke:#ffffff;stroke-width:2"/>
<polyline points="630.7 1845.4,628.7 1847.4,623.7 1854.4,621.7 1857.4,622.7 1859.4,626.7 1860.4,632.7 1858.4,635.7 1861.4,634.7 1863.4,630.7 1867.4,612.7 1884.4,607.7 1888.4,605.7 1889.4,602.7 1891.4,606.7 1888.4,612.7 1883.4" style="fill:none;stroke:#ffffff;stroke-width:2"/>
<polyline points="660.7 1824.4,658.7 1828.4,658.7 1837.4,657.7 1847.4,654.7 1866.4,652.7 1873.4,652.7 1876.4,651.7 1880.4,650.7 1882.4,651.7 1879.4,652.7 1875.4,653.7 1872.4" style="fill:none;stroke:#ffffff;stroke-width:2"/>
<polyline points="659.7 1827.4,660.7 1825.4,664.7 1826.4,667.7 1826.4,671.7 1828.4,676.7 1830.4,679.7 1831.4,681.7 1833.4,682.7 1835.4,681.7 1838.4,679.7 1840.4,676.7 1842.4,674.7 1843.4,671.7 1845.4,665.7 1848.4,663.7 1849.4" style="fill:none;stroke:#ffffff;stroke-width:2"/>
<polyline points="701.7 1859.4,698.7 1856.4,693.7 1852.4,690.7 1851.4,684.7 1851.4,682.7 1852.4,680.7 1855.4,680.7 1858.4,683.7 1860.4,685.7 1861.4,688.7 1861.4,693.7 1860.4,695.7 1861.4,694.7 1866.4,696.7 1868.4,699.7 1868.4,701.7 1867.4" style="fill:none;stroke:#ffffff;stroke-width:2"/>
<polyline points="732.7 1842.4,730.7 1844.4,726.7 1847.4,724.7 1849.4,720.7 1854.4,721.7 1857.4,722.7 1859.4,724.7 1866.4,722.7 1869.4,721.7 1871.4,719.7 1873.4,716.7 1874.4,714.7 1875.4,714.7 1873.4" style="fill:none;stroke:#ffffff;stroke-width:2"/>
<polyline points="747.7 1850.4,744.7 1851.4,742.7 1852.4,739.7 1855.4,736.7 1859.4,737.7 1862.4,739.7 1864.4,741.7 1867.4,740.7 1871.4,738.7 1873.4,735.7 1875.4,732.7 1876.4,729.7 1876.4" style="fill:none;stroke:#ffffff;stroke-width:2"/>
<polyline points="757.7 1854.4,756.7 1857.4,753.7 1863.4,752.7 1867.4,755.7 1869.4,760.7 1867.4,763.7 1866.4,765.7 1865.4,769.7 1866.4,771.7 1868.4,772.7 1870.4,776.7 1867.4,778.7 1866.4,780.7 1863.4,783.7 1860.4,785.7 1857.4,786.7 1855.4" style="fill:none;stroke:#ffffff;stroke-width:2"/>
<polyline points="804.7 1854.4,803.7 1852.4,800.7 1851.4,797.7 1851.4,792.7 1854.4,789.7 1857.4,787.7 1860.4,786.7 1863.4,787.7 1866.4,791.7 1867.4,795.7 1865.4,797.7 1863.4,799.7 1860.4,800.7 1856.4,799.7 1854.4" style="fill:none;stroke:#ffffff;stroke-width:2"/>
<polyline points="814.7 1854.4,813.7 1856.4,809.7 1863.4,808.7 1865.4,806.7 1867.4,808.7 1866.4,811.7 1863.4,824.7 1852.4,826.7 1851.4,828.7 1849.4,830.7 1848.4" style="fill:none;stroke:#ffffff;stroke-width:2"/>
<polyline points="846.7 1855.4,845.7 1852.4,843.7 1851.4,840.7 1850.4,838.7 1851.4,834.7 1852.4,831.7 1854.4,830.7 1856.4,829.7 1860.4,831.7 1862.4,834.7 1863.4,838.7 1863.4,843.7 1860.4,847.7 1856.4,851.7 1851.4,855.7 1845.4,857.7 1840.4,859.7 1837.4,860.7 1833.4,861.7 1831.4,862.7 1828.4,863.7 1826.4,864.7 1823.4,864.7 1832.4,863.7 1835.4,862.7 1839.4,859.7 1848.4,856.7 1855.4,854.7 1862.4,853.7 1864.4,852.7 1869.4,853.7 1871.4" style="fill:none;stroke:#ffffff;stroke-width:2"/>
<polyline points="146.0 101.0,144.0 104.0,142.0 110.0,141.0 115.0,141.0 118.0,140.0 124.0,140.0 127.0,139.0 130.0,138.0 137.0,137.0 143.0,135.0 151.0,135.0 154.0,134.0 157.0,133.0 159.0,132.0 158.0" style="fill:none;stroke:#5784ff;stroke-width:2"/>
<polyline points="137.0 101.0,141.0 99.0,144.0 100.0,152.0 103.0,157.0 106.0,159.0 108.0,163.0 115.0,163.0 118.0,162.0 123.0,158.0 128.0,152.0 134.0,148.0 136.0,144.0 139.0,137.0 143.0,131.0 145.0,130.0 143.0,137.0 140.0" style="fill:none;stroke:#5784ff;stroke-width:2"/>
<polyline points="188.0 129.0,187.0 127.0,185.0 124.0,182.0 123.0,177.0 124.0,175.0 125.0,169.0 130.0,167.0 133.0,166.0 137.0,167.0 140.0,171.0 141.0,174.0 141.0,176.0 140.0,183.0 136.0,184.0 134.0,186.0 131.0,185.0 128.0,183.0 126.0,182.0 125.0" style="fill:none;stroke:#5784ff;stroke-width:2"/>
<polyline points="222.0 125.0,204.0 126.0,202.0 127.0,196.0 131.0,194.0 134.0,195.0 138.0,197.0 141.0,199.0 142.0,201.0 144.0,206.0 147.0,211.0 148.0,215.0 149.0,219.0 149.0" style="fill:none;stroke:#5784ff;stroke-width:2"/>
<polyline points="55.0 31.0,53.0 32.0,52.0 36.0,50.0 45.0,49.0 50.0,49.0 56.0,48.0 60.0,49.0 64.0,50.0 70.0,52.0 73.0,55.0 75.0,58.0 74.0,65.0 70.0,70.0 66.0,72.0 64.0,76.0 59.0,77.0 57.0,80.0 52.0,81.0 49.0,83.0 45.0,84.0 42.0,85.0 40.0,86.0 37.0" style="fill:none;stroke:#ffffff;stroke-width:2"/>
<polyline points="129.0 31.0,125.0 32.0,122.0 32.0,117.0 33.0,114.0 34.0,112.0 36.0,111.0 38.0,110.0 43.0,110.0 46.0,111.0 51.0,111.0 54.0,110.0 58.0,107.0 61.0,99.0 67.0,95.0 68.0,93.0 69.0,89.0 69.0,84.0 69.0" style="fill:none;stroke:#ffffff;stroke-width:2"/>
<polyline points="120.0 62.0,123.0 63.0,128.0 62.0,130.0 61.0,133.0 61.0,138.0 58.0,142.0 56.0,146.0 53.0,148.0 51.0,149.0 49.0,149.0 45.0,143.0 47.0,140.0 49.0,138.0 51.0,135.0 55.0,134.0 58.0,135.0 64.0,137.0 66.0,140.0 67.0,143.0 67.0,147.0 66.0,151.0 64.0,156.0 62.0" style="fill:none;stroke:#ffffff;stroke-width:2"/>
<polyline points="174.0 54.0,172.0 56.0,168.0 59.0,166.0 61.0,170.0 61.0,175.0 59.0,178.0 57.0,180.0 56.0,195.0 48.0,198.0 47.0,200.0 47.0" style="fill:none;stroke:#ffffff;stroke-width:2"/>
<polyline points="212.0 52.0,205.0 53.0,202.0 55.0,200.0 57.0,199.0 60.0,201.0 63.0,205.0 68.0,206.0 70.0,205.0 75.0,202.0 77.0,200.0 79.0,198.0 80.0,188.0 84.0,190.0 82.0" style="fill:none;stroke:#ffffff;stroke-width:2"/>
<polyline points="262.0 29.0,259.0 31.0,256.0 32.0,254.0 34.0,251.0 36.0,249.0 38.0,248.0 40.0,247.0 44.0,246.0 47.0,246.0 52.0,245.0 56.0,245.0 59.0,243.0 62.0,240.0 66.0,237.0 68.0,235.0 70.0,232.0 71.0,230.0 73.0,233.0 74.0,237.0 76.0,241.0 77.0,244.0 78.0,246.0 80.0,246.0 84.0,245.0 96.0,246.0 100.0,246.0 103.0,248.0 105.0,249.0 108.0,251.0 110.0,252.0 112.0,254.0 114.0,256.0 115.0,259.0 115.0,262.0 114.0" style="fill:none;stroke:#ffffff;stroke-width:2"/>
<polyline points="56.0 -24.0,53.0 -25.0,48.0 -24.0,45.0 -22.0,38.0 -19.0,28.0 -13.0,23.0 -9.0,19.0 -5.0,18.0 -3.0,16.0 2.0,17.0 5.0,21.0 9.0,23.0 10.0,28.0 11.0,31.0 12.0,36.0 12.0,49.0 11.0,51.0 10.0" style="fill:none;stroke:#ff9500;stroke-width:2"/>
<polyline points="82.0 -3.0,78.0 -4.0,75.0 -4.0,72.0 -3.0,68.0 -2.0,65.0 -1.0,63.0 2.0,62.0 5.0,65.0 6.0,70.0 5.0,73.0 4.0,76.0 1.0,77.0 -1.0,78.0 -4.0,77.0 -5.0" style="fill:none;stroke:#ff9500;stroke-width:2"/>
<polyline points="103.0 -19.0,104.0 -15.0,103.0 -12.0,102.0 -10.0,99.0 -3.0,97.0 1.0,94.0 5.0,92.0 8.0,92.0 10.0" style="fill:none;stroke:#ff9500;stroke-width:2"/>
<polyline points="125.0 -20.0,124.0 -17.0,122.0 -10.0,122.0 -5.0,121.0 0.0,120.0 4.0,118.0 7.0,115.0 10.0,111.0 14.0" style="fill:none;stroke:#ff9500;stroke-width:2"/>
<polyline points="342.0 359.6,342.0 361.9,340.8 369.9,340.8 378.0,339.7 389.5,339.7 394.1,339.7 410.2" style="fill:none;stroke:#ffffff;stroke-width:2"/>
<polyline points="344.3 356.1,347.8 353.8,350.1 353.8,360.4 355.0,362.7 356.1,365.0 358.4,366.2 360.7,366.2 364.2,363.9 366.5,361.6 369.9,358.1 371.1,354.7 373.4,352.4 373.4,348.9 374.5,353.5 372.2" style="fill:none;stroke:#ffffff;stroke-width:2"/>
<polyline points="374.2 394.1,370.8 396.4,370.8 398.7,371.9 403.3,371.9 405.6,374.2 409.0,378.8 411.4,381.1 411.4,385.7 409.0,391.5 404.4,393.8 402.1,396.1 398.7,397.2 395.2,398.4 392.9,399.5 388.3,400.7 386.0,401.8 384.9" style="fill:none;stroke:#ffffff;stroke-width:2"/>
<polyline points="420.2 357.3,420.2 359.6,419.1 361.9,417.9 366.5,416.8 373.4,415.6 376.8,414.5 383.7,413.3 389.5,412.2 392.9,412.2 396.4,411.0 401.0,409.9 404.4,409.9 406.7,411.0 403.3,412.2 401.0,417.9 395.2,426.0 389.5,429.4 387.2,429.4 390.6,428.3 392.9,426.0 396.4,422.5 401.0,419.1 401.0" style="fill:none;stroke:#ffffff;stroke-width:2"/>
<polyline points="458.2 356.1,455.9 358.4,454.8 360.7,447.9 373.4,445.6 379.1,443.3 382.6,442.1 386.0,439.8 391.8,438.6 397.5,436.3 402.1,436.3 404.4,438.6 404.4,439.8 402.1" style="fill:none;stroke:#ffffff;stroke-width:2"/>
<polyline points="462.8 376.8,462.8 380.3,461.7 382.6,457.1 390.6,454.8 394.1,453.6 397.5,452.5 399.8,452.5 402.1,454.8 401.0,455.9 399.8" style="fill:none;stroke:#ffffff;stroke-width:2"/>
<polyline points="491.6 383.7,482.4 384.9,477.8 387.2,472.0 390.6,467.4 394.1,464.0 398.7,464.0 402.1,466.3 406.7,469.7 409.0,474.3 410.2,476.6 410.2,483.5 411.4,488.1 410.2,492.7 410.2,493.9 407.9" style="fill:none;stroke:#ffffff;stroke-width:2"/>
<polyline points="545.7 349.2,541.0 351.5,538.7 353.8,535.3 355.0,533.0 357.3,528.4 363.0,527.2 365.3,526.1 368.8,524.9 373.4,524.9 376.8,523.8 380.3,523.8 382.6,522.6 386.0,520.3 389.5,518.0 394.1,515.7 396.4,511.1 402.1,511.1 404.4,514.6 405.6,516.9 406.7,520.3 409.0,522.6 411.4,528.4 416.0,528.4 418.3,527.2 420.6,527.2 422.9,526.1 425.2,526.1 427.5,527.2 430.9,529.5 433.2,533.0 435.5,535.3 436.7,538.7 437.8,544.5 441.3,548.0 442.4,550.3 442.4,553.7 444.7" style="fill:none;stroke:#ffffff;stroke-width:2"/>
<polyline points="340.7 1560.1,337.3 1562.4,337.3 1565.8,336.1 1570.4,336.1 1572.7,333.8 1578.5,332.7 1581.9,331.5 1588.8,330.4 1592.3,329.2 1596.9,328.1 1600.3,326.9 1602.6,328.1 1600.3,329.2 1599.2" style="fill:none;stroke:#ffffff;stroke-width:2"/>
<polyline points="337.3 1557.8,339.6 1556.6,341.9 1556.6,362.6 1557.8,366.1 1560.1,366.1 1562.4,364.9 1565.8,362.6 1568.1,356.9 1571.6,352.3 1573.9,347.7 1575.0,344.2 1575.0,346.5 1572.7" style="fill:none;stroke:#ffffff;stroke-width:2"/>
<polyline points="374.1 1583.1,370.7 1585.4,370.7 1587.7,369.5 1590.0,367.2 1592.3,367.2 1594.6,368.4 1591.1,370.7 1588.8,373.0 1585.4,376.4 1581.9,384.5 1575.0,386.8 1573.9,390.2 1572.7,392.5 1571.6,394.8 1571.6,400.6 1572.7" style="fill:none;stroke:#ffffff;stroke-width:2"/>
<polyline points="408.6 1572.7,407.5 1575.0,405.2 1578.5,404.0 1581.9,401.7 1587.7,401.7 1591.1,402.9 1592.3" style="fill:none;stroke:#ffffff;stroke-width:2"/>
<polyline points="421.3 1571.6,422.4 1575.0,421.3 1579.6,420.1 1581.9,419.0 1585.4,419.0 1588.8,420.1 1592.3,422.4 1592.3,424.7 1590.0,429.3 1586.5,432.8 1583.1,437.4 1579.6,439.7 1577.3,442.0 1576.2" style="fill:none;stroke:#ffffff;stroke-width:2"/>
<polyline points="461.6 1578.5,461.6 1576.2,459.3 1572.7,457.0 1571.6,454.7 1571.6,450.1 1573.9,446.6 1576.2,444.3 1578.5,444.3 1580.8,445.5 1584.2,447.8 1585.4,451.2 1585.4,455.8 1583.1,458.1 1583.1,460.4 1580.8,462.7 1579.6,465.0 1579.6,465.0 1583.1,466.2 1590.0,468.5 1592.3,470.8 1591.1,474.2 1587.7,475.4 1585.4,475.4 1581.9,477.7 1578.5,478.8 1575.0,480.0 1572.7,483.4 1567.0,485.7 1562.4,488.0 1560.1,488.0 1562.4,486.9 1567.0,485.7 1569.3,484.6 1573.9,484.6 1577.3,483.4 1579.6,483.4 1581.9,484.6 1585.4,484.6 1587.7,485.7 1591.1" style="fill:none;stroke:#ffffff;stroke-width:2"/>
<polyline points="481.1 1578.5,485.7 1576.2,488.0 1576.2,492.6 1575.0,496.1 1575.0,506.4 1575.0" style="fill:none;stroke:#ffffff;stroke-width:2"/>
<polyline points="499.5 1583.1,503.0 1583.1,511.0 1581.9,515.6 1580.8,523.7 1579.6,527.1 1578.5,529.4 1576.2,530.6 1573.9,528.3 1571.6,524.8 1571.6,520.2 1573.9,516.8 1578.5,515.6 1580.8,513.3 1586.5,513.3 1590.0,514.5 1592.3,517.9 1595.7,522.5 1595.7,524.8 1596.9,528.3 1596.9,537.5 1595.7" style="fill:none;stroke:#ffffff;stroke-width:2"/>
<polyline points="578.9 1544.0,576.6 1545.1,574.3 1547.4,570.9 1549.7,569.7 1553.2,566.3 1556.6,564.0 1561.2,564.0 1564.7,562.8 1572.7,561.7 1575.0,559.4 1577.3,555.9 1579.6,553.6 1581.9,549.0 1585.4,552.5 1585.4,554.8 1585.4" style="fill:none;stroke:#ffffff;stroke-width:2"/>
<polyline points="553.6 1580.8,555.9 1583.1,555.9 1585.4,557.1 1600.3,559.4 1602.6,562.8 1603.8,566.3 1606.1,572.0 1609.5,574.3 1611.8,576.6 1614.1" style="fill:none;stroke:#ffffff;stroke-width:2"/>
<polyline points="300.8 301.6,298.0 298.9,289.8 301.6,284.3 304.4,265.1 318.1,259.6 323.6,259.6 329.1,262.3 334.6,265.1 337.3,273.3 342.8,278.8 342.8,284.3 342.8" style="fill:none;stroke:#ff9500;stroke-width:2"/>
<polyline points="339.2 315.4,325.5 318.1,322.7 320.8,317.3 323.6,309.0 331.8,309.0 337.3,314.5 337.3,320.0 334.6,333.7 326.3,336.5 323.6,333.7 320.8,328.2 320.8" style="fill:none;stroke:#ff9500;stroke-width:2"/>
<polyline points="366.7 296.1,363.9 304.4,363.9 309.9,361.2 312.6,355.7 320.8,352.9 326.3,350.2 329.1,350.2 334.6,347.5 337.3,352.9 334.6,363.9 326.3" style="fill:none;stroke:#ff9500;stroke-width:2"/>
<polyline points="394.1 296.1,394.1 301.6,391.4 309.9,388.6 315.4,388.6 320.8,385.9 323.6,385.9 331.8,383.1 337.3,383.1 342.8" style="fill:none;stroke:#ff9500;stroke-width:2"/>
<polyline points="437.2 862.1,434.1 865.2" style="fill:none;stroke:#ffffff;stroke-width:2"/>
<polyline points="440.9 906.2,442.0 909.6,443.1 911.9,443.1 916.4,442.0 928.8,442.0 935.6,440.9 939.0,439.8 943.5,439.8 946.9,437.5 951.4,437.5 953.6" style="fill:none;stroke:#ffffff;stroke-width:2"/>
<polyline points="438.6 908.5,442.0 908.5,447.7 910.7,449.9 911.9,455.6 914.1,457.8 915.3,462.3 918.6,465.7 920.9,466.9 924.3,466.9 926.5,465.7 929.9,463.5 933.3,461.2 935.6,455.6 939.0,453.3 940.1,447.7 942.4,445.4 942.4,443.1 943.5" style="fill:none;stroke:#ffffff;stroke-width:2"/>
<polyline points="481.5 934.4,478.2 933.3,475.9 933.3,474.8 935.6,472.5 937.8,469.1 942.4,468.0 945.7,469.1 948.0,472.5 949.1,474.8 949.1,477.0 946.9,480.4 944.6,484.9 940.1,488.3 935.6,487.2 939.0,487.2 941.2,488.3 946.9,488.3 950.3,489.4 952.5,492.8 954.8,495.1 952.5,495.1 950.3" style="fill:none;stroke:#ffffff;stroke-width:2"/>
<polyline points="509.8 913.0,509.8 917.5,508.6 923.2,507.5 926.5,505.3 934.4,503.0 941.2,503.0 944.6,501.9 948.0,500.7 953.6,500.7 957.0,501.9 960.4,504.1 960.4" style="fill:none;stroke:#ffffff;stroke-width:2"/>
<polyline points="498.5 940.1,503.0 936.7,506.4 934.4,512.0 932.2,516.5 929.9,518.8 929.9,522.2 928.8,527.8 927.7,530.1 928.8" style="fill:none;stroke:#ffffff;stroke-width:2"/>
<polyline points="543.6 937.8,540.3 935.6,538.0 935.6,535.7 936.7,531.2 940.1,529.0 942.4,527.8 944.6,526.7 948.0,525.6 950.3,526.7 952.5,530.1 953.6,532.4 951.4,542.5 940.1,545.9 936.7,547.0 934.4,547.0 936.7,548.2 945.7,548.2 948.0,549.3 951.4,551.5 955.9,553.8 958.2,557.2 960.4,559.5 960.4,565.1 959.3,568.5 957.0,571.9 953.6" style="fill:none;stroke:#ffffff;stroke-width:2"/>
<polyline points="618.2 910.7,613.7 911.9,611.4 913.0,608.0 915.3,599.0 923.2,596.7 927.7,595.6 931.1,595.6 934.4,596.7 936.7,596.7 939.0,597.8 941.2,596.7 943.5,596.7 945.7,594.5 948.0,594.5 950.3,596.7 950.3,600.1 949.1,602.4 950.3,601.2 952.5,601.2 955.9,600.1 958.2,600.1 961.5,601.2 967.2,602.4 969.5,604.6 970.6,608.0 972.8,611.4 972.8,613.7 974.0,618.2 975.1" style="fill:none;stroke:#ffffff;stroke-width:2"/>
<polyline points="433.0 853.1,431.9 856.5,431.9 858.8,430.7 861.1,430.7 864.4,431.9 884.8" style="fill:none;stroke:#5784ff;stroke-width:2"/>
<polyline points="431.9 858.8,434.1 858.8,439.8 859.9,442.0 859.9,445.4 861.1,447.7 862.2,449.9 864.4,452.2 867.8,451.1 871.2,448.8 874.6,446.5 876.9,443.1 879.1,440.9 880.2,437.5 880.2,434.1 881.4,431.9 881.4,435.2 883.6" style="fill:none;stroke:#5784ff;stroke-width:2"/>
<polyline points="468.0 881.4,468.0 878.0,466.9 875.7,464.6 875.7,460.1 876.9,459.0 879.1,456.7 885.9,459.0 887.0,463.5 888.2,466.9 887.0,469.1 884.8,471.4 883.6,471.4 881.4,469.1 875.7,466.9 875.7" style="fill:none;stroke:#5784ff;stroke-width:2"/>
<polyline points="503.0 876.9,503.0 874.6,500.7 872.3,498.5 872.3,489.4 873.5,486.1 874.6,482.7 876.9,481.5 880.2,483.8 882.5,488.3 883.6,490.6 884.8,497.3 885.9,500.7 887.0,505.3 888.2,509.8 888.2,512.0 889.3" style="fill:none;stroke:#5784ff;stroke-width:2"/>
<polyline points="451.1 1248.4,454.4 1249.5,456.7 1249.5,460.1 1251.8,464.6 1255.1,466.9 1257.4,469.1 1260.8,469.1 1263.0,470.2 1265.3,469.1 1267.6,465.7 1275.5,463.5 1277.7,463.5 1281.1,464.6 1286.8,465.7 1290.1,466.9 1294.7,469.1 1299.2,470.2 1302.6,469.1 1306.0,466.9 1308.2,463.5 1310.5,457.8 1313.9,455.6 1315.0,453.3 1317.2,454.4 1319.5,456.7 1321.8,457.8 1324.0,459.0 1325.1" style="fill:none;stroke:#ffffff;stroke-width:2"/>
<polyline points="259.1 2192.7,259.1 2195.6,259.8 2197.8,261.3 2200.0,263.5 2202.2,267.2 2204.5,270.1 2205.9,273.8 2208.1,276.0 2209.6,278.2 2211.8,278.2 2214.0,276.8 2215.5,274.6 2218.5,270.9 2220.7,268.7 2223.6,266.4 2225.1,265.0 2228.1,265.0 2231.0,268.7 2234.7,272.3 2236.9,275.3 2239.1,277.5 2240.6,279.0 2242.1,281.2 2243.5,281.9 2246.5,279.7 2249.4,278.2 2250.9,275.3 2253.1,268.7 2257.6,261.3 2261.2,247.3 2267.9,245.1 2269.4,248.0 2269.4,254.6 2269.4" style="fill:none;stroke:#ffffff;stroke-width:2"/>
<polyline points="352.9 1356.9,350.0 1359.7,352.9 1362.6,358.6 1365.5,361.5 1368.3,367.2 1368.3,370.1 1371.2,375.8 1379.8,378.7 1382.7,378.7 1388.4,375.8 1394.1,373.0 1397.0,370.1 1405.6,370.1 1411.3,373.0 1417.0,378.7 1425.6,381.6 1428.5,381.6 1437.1,378.7 1442.8,375.8 1445.7,367.2 1451.4,358.6 1460.0,352.9 1462.9,344.3 1468.6,338.6 1468.6,341.4 1471.5,347.2 1471.5,355.8 1471.5" style="fill:none;stroke:#ffffff;stroke-width:2"/>
<polyline points="193.4 2308.3,196.3 2311.2,202.0 2311.2,210.6 2314.0,224.9 2319.8,233.5 2325.5,236.4 2328.4,236.4 2334.1,233.5 2342.7,227.8 2345.6,224.9 2348.4,213.4 2357.0,210.6 2359.9,204.8 2371.4,210.6 2377.1,219.2 2382.8,224.9 2385.7,227.8 2397.1,222.0 2402.9,207.7 2414.3,202.0 2417.2,187.7 2425.8,179.1 2428.7,176.2 2431.5,179.1 2431.5,190.5 2428.7" style="fill:none;stroke:#ffffff;stroke-width:2"/>
<polyline points="365.0 1487.3,362.2 1484.6,354.0 1487.3,348.5 1490.1,329.3 1503.8,323.8 1509.3,323.8 1514.8,326.5 1520.3,329.3 1523.0,337.5 1528.5,343.0 1528.5,348.5 1528.5" style="fill:none;stroke:#ff9500;stroke-width:2"/>
<polyline points="403.4 1501.1,389.7 1503.8,386.9 1506.5,381.4 1509.3,373.2 1517.5,373.2 1523.0,378.7 1523.0,384.2 1520.3,397.9 1512.0,400.7 1509.3,397.9 1506.5,392.4 1506.5" style="fill:none;stroke:#ff9500;stroke-width:2"/>
<polyline points="430.9 1481.8,428.1 1490.1,428.1 1495.6,425.4 1498.3,419.9 1506.5,417.1 1512.0,414.4 1514.8,414.4 1520.3,411.6 1523.0,417.1 1520.3,428.1 1512.0" style="fill:none;stroke:#ff9500;stroke-width:2"/>
<polyline points="458.3 1481.8,458.3 1487.3,455.6 1495.6,452.8 1501.1,452.8 1506.5,450.1 1509.3,450.1 1517.5,447.3 1523.0,447.3 1528.5" style="fill:none;stroke:#ff9500;stroke-width:2"/>
<polyline points="435.5 1670.8,434.4 1672.9,434.4 1675.0,433.3 1687.8,433.3 1689.9,432.3 1702.7,432.3 1704.8,431.2 1708.0,431.2 1710.2,432.3 1709.1" style="fill:none;stroke:#ffffff;stroke-width:2"/>
<polyline points="434.4 1668.7,437.6 1668.7,440.8 1670.8,442.9 1671.9,449.3 1674.0,451.4 1676.1,453.6 1677.2,456.8 1680.4,458.9 1684.6,458.9 1687.8,456.8 1691.0,455.7 1694.2,452.5 1698.5,450.4 1701.7,446.1 1705.9,440.8 1710.2,438.7 1711.2,439.7 1709.1" style="fill:none;stroke:#ffffff;stroke-width:2"/>
<polyline points="473.8 1689.9,471.7 1688.9,469.5 1688.9,463.1 1689.9,461.0 1692.1,460.0 1694.2,460.0 1696.3,461.0 1699.5,464.2 1700.6,466.3 1699.5,471.7 1696.3,474.9 1694.2,475.9 1692.1,478.0 1689.9,478.0 1692.1,477.0 1695.3,477.0 1698.5,478.0 1705.9,481.2 1708.0,485.5 1707.0,489.7 1704.8,491.9 1701.7,494.0 1699.5" style="fill:none;stroke:#ffffff;stroke-width:2"/>
<polyline points="512.1 1669.7,510.0 1672.9,508.9 1676.1,505.7 1680.4,504.6 1683.6,503.6 1685.7,501.5 1691.0,499.3 1694.2,499.3 1696.3,498.3 1698.5,498.3 1701.7,497.2 1702.7" style="fill:none;stroke:#ffffff;stroke-width:2"/>
<polyline points="494.0 1693.1,496.1 1692.1,498.3 1692.1,504.6 1691.0,507.8 1691.0,512.1 1689.9,514.2 1689.9,519.5 1687.8,521.7 1686.8,523.8 1685.7" style="fill:none;stroke:#ffffff;stroke-width:2"/>
<polyline points="534.4 1692.1,533.4 1689.9,530.2 1689.9,528.1 1691.0,524.9 1693.1,522.7 1695.3,521.7 1697.4,521.7 1699.5,523.8 1699.5,529.1 1698.5,533.4 1697.4,535.5 1696.3,538.7 1694.2,541.9 1693.1,544.0 1693.1,544.0 1697.4,547.2 1713.4,548.3 1715.5,552.5 1719.7,557.9 1722.9,560.0 1722.9,567.4 1720.8" style="fill:none;stroke:#ffffff;stroke-width:2"/>
<polyline points="606.8 1666.5,604.7 1667.6,602.6 1669.7,600.4 1670.8,599.4 1672.9,597.2 1675.0,596.2 1679.3,596.2 1683.6,597.2 1686.8,599.4 1691.0,600.4 1694.2,600.4 1696.3,599.4 1698.5,597.2 1699.5,594.0 1701.7,591.9 1702.7,591.9 1705.9,595.1 1708.0,597.2 1710.2,599.4 1711.2,600.4 1713.4,602.6 1715.5,603.6 1717.6,603.6 1719.7,605.7 1725.1,607.9 1725.1,614.3 1724.0" style="fill:none;stroke:#ffffff;stroke-width:2"/>
<polyline points="432.3 1911.3,431.2 1914.5,432.3 1916.6,434.4 1919.8,437.6 1920.9,440.8 1923.0,447.2 1926.2,451.4 1929.4,452.5 1931.5,452.5 1933.6,450.4 1935.8,449.3 1937.9,445.1 1942.2,441.9 1944.3,439.7 1947.5,438.7 1949.6,439.7 1951.7,441.9 1954.9,446.1 1959.2,450.4 1962.4,452.5 1964.5,456.8 1970.9,457.8 1974.1,455.7 1978.3,451.4 1982.6,438.7 1992.2,432.3 1994.3,423.8 1997.5,420.6 1998.6,422.7 1997.5,429.1 1997.5,436.5 1997.5" style="fill:none;stroke:#ffffff;stroke-width:2"/>
<polyline points="319.7 2017.3,323.5 2021.1,327.3 2028.7,334.9 2040.1,338.7 2043.9,353.9 2066.7,350.1 2074.3,350.1 2081.9,353.9 2085.6,372.9 2112.2,369.1 2119.8,361.5 2123.6,357.7 2127.4,350.1 2131.2,346.3 2135.0,334.9 2142.6,350.1 2146.4" style="fill:none;stroke:#ffffff;stroke-width:2"/>
<polyline points="411.9 1620.4,410.0 1618.5,410.0 1622.3,408.2 1626.1,406.3 1631.8,406.3 1639.4,404.4 1650.7,404.4 1656.4,406.3 1667.7,406.3 1664.0" style="fill:none;stroke:#5784ff;stroke-width:2"/>
<polyline points="404.4 1620.4,408.2 1620.4,417.6 1622.3,423.3 1622.3,425.2 1624.2,432.8 1633.7,432.8 1637.5,430.9 1646.9,425.2 1656.4,423.3 1660.2,417.6 1665.9,411.9 1669.6,408.2 1671.5,402.5 1671.5,402.5 1667.7,404.4 1665.9,408.2 1662.1" style="fill:none;stroke:#5784ff;stroke-width:2"/>
<polyline points="455.5 1639.4,457.4 1637.5,457.4 1633.7,455.5 1631.8,449.8 1631.8,446.0 1633.7,440.3 1635.6,434.6 1639.4,432.8 1643.1,430.9 1645.0,429.0 1648.8,429.0 1652.6,430.9 1654.5,436.5 1658.3,442.2 1658.3,451.7 1656.4,455.5 1654.5,457.4 1652.6,459.2 1646.9,457.4 1645.0,453.6 1643.1,451.7 1645.0" style="fill:none;stroke:#5784ff;stroke-width:2"/>
<polyline points="491.4 1635.6,491.4 1631.8,487.6 1631.8,480.1 1633.7,476.3 1635.6,470.6 1637.5,468.7 1639.4,468.7 1643.1,472.5 1646.9,480.1 1648.8,485.7 1648.8,489.5 1650.7" style="fill:none;stroke:#5784ff;stroke-width:2"/>
<polyline points="-382.8 1158.7,-384.7 1156.8,-384.7 1160.6,-386.6 1168.2,-388.5 1172.0,-394.2 1185.2,-398.0 1192.8,-403.7 1207.9,-407.4 1215.5,-422.6 1242.0,-426.4 1249.5,-428.3 1255.2,-430.1 1257.1,-426.4 1257.1,-424.5 1255.2,-413.1 1245.8" style="fill:none;stroke:#ff5959;stroke-width:2"/>
<polyline points="-441.5 1306.3,-443.4 1304.4,-445.3 1300.6,-447.2 1298.7,-452.9 1296.9,-454.7 1298.7,-454.7 1304.4,-451.0 1308.2,-445.3 1310.1,-441.5 1310.1,-433.9 1308.2,-432.0 1304.4,-432.0 1300.6,-433.9 1296.9,-437.7 1291.2,-439.6 1289.3,-443.4 1289.3,-445.3 1291.2,-443.4 1295.0,-439.6 1300.6,-437.7 1304.4,-435.8 1306.3,-437.7 1304.4,-439.6 1300.6,-441.5 1298.7,-447.2 1293.1" style="fill:none;stroke:#ff5959;stroke-width:2"/>
<polyline points="-377.2 1285.5,-377.2 1281.7,-375.3 1277.9,-373.4 1272.3,-365.8 1253.3,-360.1 1240.1,-356.3 1234.4,-346.9 1221.2,-343.1 1215.5,-341.2 1211.7,-339.3 1209.8,-335.5 1207.9,-329.9 1207.9,-326.1 1209.8,-320.4 1213.6,-314.7 1215.5,-303.4 1217.4,-295.8 1219.3,-292.0 1219.3" style="fill:none;stroke:#ff5959;stroke-width:2"/>
<polyline points="-360.1 1249.5,-358.2 1247.7,-354.5 1247.7,-329.9 1249.5,-324.2 1249.5,-320.4 1251.4,-316.6 1251.4,-314.7 1253.3,-310.9 1253.3" style="fill:none;stroke:#ff5959;stroke-width:2"/>
<polyline points="-309.0 1279.8,-312.8 1281.7,-314.7 1283.6,-312.8 1281.7,-314.7 1283.6,-320.4 1291.2,-318.5 1289.3,-316.6 1285.5,-310.9 1277.9,-305.3 1268.5,-297.7 1257.1,-286.3 1242.0,-282.5 1236.3,-280.7 1232.5,-275.0 1226.8,-273.1 1223.1,-271.2 1221.2,-269.3 1219.3" style="fill:none;stroke:#ff5959;stroke-width:2"/>
<polyline points="-295.8 1319.6,-295.8 1315.8,-293.9 1313.9,-288.2 1304.4,-284.4 1300.6,-275.0 1287.4,-267.4 1277.9,-257.9 1268.5,-256.1 1264.7,-248.5 1257.1,-242.8 1253.3,-240.9 1249.5,-239.0 1251.4,-240.9 1255.2,-242.8 1260.9,-246.6 1268.5,-248.5 1274.1,-252.3 1283.6,-254.2 1287.4,-254.2 1293.1,-256.1 1300.6,-256.1 1306.3,-254.2 1313.9,-252.3 1315.8,-246.6 1312.0,-240.9 1306.3,-235.2 1298.7,-231.5 1295.0,-223.9 1283.6,-218.2 1277.9,-214.4 1272.3,-212.5 1268.5,-210.6 1266.6" style="fill:none;stroke:#ff5959;stroke-width:2"/>
<polyline points="-178.5 1270.4,-176.6 1268.5,-178.5 1270.4,-197.4 1291.2,-203.1 1298.7,-206.9 1300.6,-210.6 1306.3,-212.5 1310.1,-216.3 1315.8,-214.4 1313.9" style="fill:none;stroke:#ff5959;stroke-width:2"/>
<polyline points="-182.3 1262.8,-178.5 1264.7,-170.9 1266.6,-165.2 1268.5,-159.5 1274.1,-152.0 1283.6,-152.0 1287.4,-157.7 1308.2,-163.3 1315.8,-172.8 1323.3,-176.6 1325.2,-182.3 1327.1,-191.7 1329.0,-199.3 1329.0,-208.7 1327.1,-210.6 1325.2,-210.6 1321.5,-208.7 1319.6" style="fill:none;stroke:#ff5959;stroke-width:2"/>
<polyline points="-379.1 1302.5,-382.8 1304.4,-386.6 1312.0,-392.3 1321.5,-401.8 1332.8,-411.2 1346.1,-420.7 1357.4,-428.3 1366.9,-430.1 1370.7,-433.9 1374.4,-426.4 1368.8,-422.6 1365.0,-413.1 1357.4,-409.3 1353.6" style="fill:none;stroke:#ff5959;stroke-width:2"/>
<polyline points="-390.4 1317.7,-392.3 1315.8,-390.4 1312.0,-384.7 1312.0,-382.8 1313.9,-377.2 1317.7,-375.3 1319.6,-367.7 1329.0,-367.7 1332.8,-369.6 1336.6,-373.4 1342.3,-379.1 1346.1,-384.7 1347.9,-384.7 1351.7,-382.8 1353.6,-375.3 1365.0,-375.3 1368.8,-377.2 1372.5,-379.1 1374.4,-384.7 1376.3,-388.5 1378.2,-398.0 1380.1,-415.0 1380.1,-426.4 1378.2,-424.5 1374.4,-420.7 1374.4,-416.9 1372.5,-409.3 1372.5,-401.8 1370.7" style="fill:none;stroke:#ff5959;stroke-width:2"/>
<polyline points="-318.5 1342.3,-322.3 1344.2,-324.2 1346.1,-333.6 1353.6,-335.5 1355.5,-346.9 1365.0,-352.6 1370.7,-356.3 1376.3,-358.2 1380.1,-362.0 1383.9,-363.9 1387.7,-367.7 1399.0,-367.7 1402.8,-365.8 1406.6,-362.0 1408.5,-356.3 1410.4,-352.6 1410.4,-341.2 1412.3,-337.4 1412.3,-333.6 1414.2,-329.9 1416.1" style="fill:none;stroke:#ff5959;stroke-width:2"/>
<polyline points="-348.8 1372.5,-345.0 1372.5,-341.2 1374.4,-335.5 1376.3,-328.0 1376.3,-309.0 1374.4" style="fill:none;stroke:#ff5959;stroke-width:2"/>
<polyline points="-322.3 1347.9,-318.5 1347.9,-316.6 1349.8,-312.8 1351.7,-309.0 1351.7,-307.1 1353.6,-301.5 1353.6,-295.8 1355.5,-288.2 1355.5,-282.5 1355.5" style="fill:none;stroke:#ff5959;stroke-width:2"/>
<polyline points="-233.3 1359.3,-237.1 1363.1,-307.1 1435.0,-303.4 1433.1" style="fill:none;stroke:#ff5959;stroke-width:2"/>
<polyline points="-273.1 1344.2,-267.4 1346.1,-263.6 1346.1,-259.8 1347.9,-242.8 1357.4,-237.1 1359.3,-229.6 1365.0,-222.0 1368.8,-216.3 1372.5,-212.5 1374.4,-210.6 1376.3" style="fill:none;stroke:#ff5959;stroke-width:2"/>
<polyline points="-199.3 1372.5,-201.2 1374.4,-206.9 1382.0,-214.4 1387.7,-222.0 1399.0,-231.5 1408.5,-235.2 1414.2,-239.0 1418.0,-252.3 1433.1,-254.2 1436.9,-259.8 1446.3,-259.8 1450.1,-261.7 1452.0" style="fill:none;stroke:#ff5959;stroke-width:2"/>
<polyline points="-240.9 1376.3,-239.0 1374.4,-233.3 1376.3,-229.6 1376.3,-225.8 1378.2,-223.9 1380.1,-218.2 1382.0,-210.6 1385.8,-208.7 1387.7,-201.2 1389.6,-199.3 1391.5,-193.6 1395.3,-187.9 1397.1,-184.1 1397.1" style="fill:none;stroke:#ff5959;stroke-width:2"/>
<polyline points="-163.3 1389.6,-167.1 1391.5,-172.8 1397.1,-203.1 1429.3,-206.9 1433.1,-216.3 1444.5,-218.2 1450.1,-220.1 1459.6,-220.1 1463.4,-218.2 1469.1,-216.3 1472.8,-214.4 1474.7,-201.2 1486.1,-199.3 1488.0,-195.5 1489.9,-191.7 1489.9,-184.1 1488.0,-182.3 1486.1,-180.4 1482.3" style="fill:none;stroke:#ff5959;stroke-width:2"/>
<polyline points="-201.2 1418.0,-195.5 1419.9,-191.7 1419.9,-186.0 1421.7,-178.5 1425.5,-172.8 1427.4,-165.2 1429.3,-161.4 1429.3,-159.5 1427.4" style="fill:none;stroke:#ff5959;stroke-width:2"/>
<polyline points="-169.0 1402.8,-165.2 1402.8,-138.7 1402.8" style="fill:none;stroke:#ff5959;stroke-width:2"/>
<polyline points="-134.9 1448.2,-133.1 1446.3,-133.1 1453.9,-136.8 1459.6,-140.6 1467.2,-148.2 1478.5,-150.1 1480.4,-157.7 1488.0" style="fill:none;stroke:#ff5959;stroke-width:2"/>
<polyline points="-119.8 1425.5,-116.0 1427.4,-114.1 1429.3,-110.3 1431.2,-108.5 1433.1,-102.8 1436.9,-100.9 1438.8,-95.2 1446.3,-93.3 1450.1,-93.3 1455.8,-97.1 1459.6,-100.9 1465.3,-102.8 1467.2,-110.3 1472.8,-114.1 1476.6,-117.9 1478.5,-123.6 1482.3,-131.2 1488.0,-131.2 1493.7,-129.3 1495.5,-127.4 1501.2,-125.5 1503.1,-119.8 1510.7,-116.0 1518.3,-114.1 1520.1,-112.2 1523.9,-106.6 1533.4,-110.3 1533.4" style="fill:none;stroke:#ff5959;stroke-width:2"/>
<polyline points="-473.7 1457.7,-475.6 1459.6,-475.6 1463.4,-473.7 1461.5,-454.7 1444.5,-445.3 1436.9,-441.5 1433.1,-435.8 1431.2,-428.3 1427.4,-422.6 1425.5,-418.8 1425.5,-415.0 1427.4,-416.9 1436.9,-420.7 1448.2,-428.3 1469.1,-432.0 1476.6,-433.9 1482.3,-433.9 1486.1,-430.1 1486.1,-416.9 1480.4,-407.4 1474.7,-401.8 1472.8,-392.3 1467.2,-388.5 1463.4,-382.8 1459.6,-379.1 1457.7,-377.2 1455.8,-373.4 1455.8,-371.5 1453.9,-369.6 1455.8" style="fill:none;stroke:#ff5959;stroke-width:2"/>
<polyline points="-394.2 1518.3,-396.1 1520.1,-394.2 1518.3,-388.5 1514.5,-380.9 1506.9,-369.6 1499.3,-365.8 1495.5,-356.3 1488.0,-352.6 1486.1,-346.9 1480.4,-343.1 1480.4,-339.3 1476.6,-335.5 1476.6,-335.5 1482.3,-339.3 1488.0,-345.0 1497.4,-350.7 1505.0,-356.3 1514.5,-360.1 1522.0,-362.0 1523.9,-367.7 1531.5,-369.6 1535.3" style="fill:none;stroke:#ff5959;stroke-width:2"/>
<polyline points="-382.8 1499.3,-384.7 1497.4,-379.1 1499.3,-377.2 1501.2,-369.6 1503.1,-367.7 1505.0,-362.0 1506.9,-360.1 1508.8,-354.5 1510.7,-346.9 1514.5,-345.0 1516.4" style="fill:none;stroke:#ff5959;stroke-width:2"/>
<polyline points="-350.7 1558.0,-346.9 1558.0,-345.0 1556.1,-343.1 1552.3,-337.4 1546.6,-331.7 1539.1,-324.2 1531.5,-322.3 1527.7,-318.5 1523.9,-301.5 1508.8,-297.7 1506.9,-293.9 1506.9,-295.8 1512.6,-301.5 1527.7,-301.5 1531.5,-297.7 1535.3,-288.2 1531.5,-280.7 1527.7,-271.2 1523.9,-267.4 1523.9,-265.5 1522.0,-259.8 1520.1,-256.1 1520.1,-254.2 1523.9,-256.1 1527.7,-257.9 1533.4,-261.7 1541.0,-271.2 1556.1,-273.1 1558.0,-273.1 1561.8,-275.0 1563.7,-275.0 1567.5,-271.2 1567.5" style="fill:none;stroke:#ff5959;stroke-width:2"/>
<polyline points="-222.0 1531.5,-223.9 1535.3,-227.7 1541.0,-233.3 1546.6,-248.5 1563.7,-252.3 1569.3,-256.1 1578.8,-256.1 1584.5,-254.2 1590.2,-252.3 1592.1,-239.0 1603.4,-237.1 1605.3,-233.3 1607.2,-231.5 1609.1,-225.8 1612.9,-222.0 1612.9,-220.1 1611.0,-218.2 1609.1" style="fill:none;stroke:#ff5959;stroke-width:2"/>
<polyline points="-244.7 1567.5,-242.8 1569.3,-237.1 1573.1,-233.3 1573.1,-227.7 1575.0,-223.9 1575.0,-218.2 1576.9,-214.4 1578.8,-210.6 1578.8,-208.7 1576.9,-206.9 1575.0" style="fill:none;stroke:#ff5959;stroke-width:2"/>
<polyline points="-212.5 1544.7,-208.7 1544.7,-205.0 1546.6,-195.5 1550.4,-191.7 1552.3,-186.0 1554.2,-184.1 1556.1" style="fill:none;stroke:#ff5959;stroke-width:2"/>
<polyline points="-129.3 1571.2,-131.2 1567.5,-134.9 1567.5,-140.6 1569.3,-142.5 1571.2,-150.1 1575.0,-157.7 1580.7,-159.5 1582.6,-163.3 1590.2,-163.3 1599.6,-159.5 1607.2,-157.7 1609.1,-155.8 1614.8,-153.9 1616.7,-152.0 1620.4,-152.0 1624.2,-153.9 1628.0,-157.7 1631.8,-163.3 1633.7,-167.1 1633.7,-174.7 1635.6,-182.3 1635.6,-191.7 1633.7,-195.5 1631.8,-197.4 1629.9" style="fill:none;stroke:#ff5959;stroke-width:2"/>
<polyline points="-55.5 1561.8,-57.4 1563.7,-59.3 1567.5,-63.0 1569.3,-64.9 1571.2,-80.1 1588.3,-85.7 1593.9,-100.9 1611.0,-110.3 1622.3,-114.1 1626.1,-121.7 1635.6,-125.5 1637.5,-127.4 1641.3,-129.3 1643.1,-125.5 1641.3,-119.8 1639.4" style="fill:none;stroke:#ff5959;stroke-width:2"/>
<polyline points="-133.1 1677.2,-129.3 1677.2,-127.4 1673.4,-131.2 1671.5,-133.1 1669.6,-136.8 1669.6,-138.7 1667.7,-142.5 1675.3,-140.6 1679.1,-136.8 1681.0,-134.9 1682.9,-134.9 1679.1,-136.8 1675.3" style="fill:none;stroke:#ff5959;stroke-width:2"/>
<polyline points="-13.8 1321.5,-11.9 1323.3,-13.8 1327.1,-15.7 1329.0,-21.4 1336.6,-25.2 1340.4,-34.7 1351.7,-42.2 1363.1,-49.8 1372.5,-53.6 1376.3,-59.3 1383.9,-59.3 1387.7,-57.4 1385.8,-49.8 1378.2" style="fill:none;stroke:#ff5959;stroke-width:2"/>
<polyline points="-97.1 1408.5,-97.1 1412.3,-93.3 1412.3,-91.4 1410.4,-89.5 1404.7,-91.4 1400.9,-95.2 1400.9,-97.1 1402.8,-97.1 1406.6,-95.2 1410.4,-93.3 1412.3,-85.7 1416.1,-82.0 1416.1,-78.2 1412.3,-78.2 1408.5,-80.1 1406.6" style="fill:none;stroke:#ff5959;stroke-width:2"/>
<polyline points="-490.7 1336.6,-494.5 1340.4,-500.2 1347.9,-502.1 1353.6,-505.8 1359.3,-515.3 1374.4,-522.9 1389.6,-530.4 1410.4,-532.3 1419.9,-534.2 1423.6,-534.2 1429.3,-532.3 1433.1,-528.5 1431.2" style="fill:none;stroke:#ff5959;stroke-width:2"/>
<polyline points="-541.8 1476.6,-543.7 1474.7,-553.1 1469.1,-556.9 1469.1,-558.8 1472.8,-558.8 1478.5,-556.9 1484.2,-555.0 1486.1,-547.5 1486.1,-545.6 1482.3,-543.7 1474.7,-545.6 1470.9,-547.5 1467.2" style="fill:none;stroke:#ff5959;stroke-width:2"/>
<polyline points="-386.6 1113.3,-384.7 1115.2,-373.4 1111.4,-358.2 1107.6,-350.7 1103.8,-331.7 1096.3,-310.9 1088.7,-301.5 1084.9,-293.9 1083.0,-278.8 1081.1,-269.3 1079.2,-263.6 1081.1,-261.7 1084.9,-261.7 1092.5,-263.6 1105.7,-265.5 1115.2,-267.4 1128.4,-267.4 1132.2,-265.5 1137.9,-259.8 1141.7,-256.1 1141.7,-242.8 1143.6,-225.8 1139.8,-214.4 1137.9,-205.0 1136.0,-186.0 1130.3,-169.0 1128.4,-159.5 1126.5,-155.8 1128.4,-152.0 1137.9,-153.9 1141.7,-157.7 1151.1,-163.3 1160.6,-167.1 1164.4,-169.0 1168.2,-170.9 1175.7,-170.9 1179.5,-163.3 1181.4,-155.8 1181.4,-127.4 1179.5,-110.3 1179.5,-89.5 1181.4,-78.2 1183.3,-74.4 1185.2,-70.6 1189.0,-68.7 1196.6,-70.6 1200.3,-70.6 1204.1,-68.7 1211.7,-66.8 1213.6,-63.0 1213.6,-49.8 1213.6" style="fill:none;stroke:#ff5959;stroke-width:2"/>
<polyline points="-522.9 1556.1,-521.0 1554.2,-517.2 1554.2,-521.0 1559.9,-524.8 1571.2,-526.7 1578.8,-530.4 1584.5,-534.2 1599.6,-536.1 1605.3,-538.0 1614.8,-538.0 1624.2,-536.1 1628.0,-534.2 1629.9,-526.7 1635.6,-515.3 1639.4,-500.2 1639.4,-452.9 1641.3,-445.3 1643.1,-433.9 1646.9,-424.5 1652.6,-416.9 1662.1,-413.1 1671.5,-409.3 1684.8,-407.4 1690.5,-403.7 1696.1,-399.9 1699.9,-396.1 1701.8,-384.7 1705.6,-369.6 1705.6,-284.4 1707.5,-275.0 1709.4,-257.9 1715.1,-246.6 1720.7,-242.8 1726.4,-239.0 1730.2,-235.2 1739.7,-231.5 1747.2,-231.5 1751.0,-229.6 1758.6,-227.7 1762.4,-225.8 1764.3,-212.5 1771.8,-201.2 1771.8,-195.5 1773.7,-180.4 1773.7,-174.7 1775.6,-159.5 1777.5,-153.9 1777.5,-140.6 1781.3,-131.2 1783.2,-127.4 1785.1,-123.6 1787.0" style="fill:none;stroke:#ff5959;stroke-width:2"/>
<polyline points="301.1 660.8,305.3 658.7,309.5 658.7,313.7 654.5,324.2 648.2,328.4 646.2,338.9 639.9,351.5 633.6,362.0 629.4,370.4 623.1,378.8 618.9,383.0 618.9,387.2 616.8,393.5 612.6,397.7 610.5,399.8 608.4,404.0 608.4,404.0 604.2,406.1 602.1,408.2 595.8,404.0 593.7,399.8 593.7,399.8 591.6,404.0 591.6,416.6 595.8,412.4 597.9,408.2 602.1,397.7 614.7,395.6 616.8,393.5 621.0,391.4 623.1,393.5 625.2" style="fill:none;stroke:#ff5959;stroke-width:2"/>
<polyline points="150.0 1082.9,147.9 1085.0,147.9 1089.2,145.8 1108.1,145.8 1114.4,143.7 1129.1,143.7 1139.6,141.6 1141.7,141.6 1145.9,139.5 1164.8,139.5 1169.0,137.4 1183.7,137.4 1192.1,135.3 1198.4,135.3 1204.7,133.2 1215.2,133.2 1219.3,131.1 1223.5,131.1 1227.7,129.0 1236.1,129.0 1244.5,126.9 1250.8,126.9 1257.1,124.8 1267.6,124.8 1273.9,126.9 1311.7,129.0 1315.9,133.2 1322.2,135.3 1326.4,137.4 1332.7,139.5 1334.8,154.2 1345.3,160.5 1347.4,175.2 1351.6,183.6 1351.6,192.0 1353.7,196.2 1353.7,204.6 1355.8,208.8 1357.9,219.3 1357.9,231.9 1360.0,242.4 1360.0,263.4 1362.1,273.8 1362.1,305.3 1364.2,313.7 1364.2,326.3 1362.1,330.5 1362.1,338.9 1360.0,345.2 1360.0,353.6 1357.9,355.7 1355.8,362.0 1353.7,370.4 1349.5,376.7 1347.4,380.9 1345.3,387.2 1343.2,391.4 1341.1,399.8 1339.0,401.9 1336.9,406.1 1334.8,408.2 1332.7,408.2 1328.5,404.0 1326.4,401.9 1328.5,397.7 1328.5,378.8 1330.6,374.6 1330.6,372.5 1328.5,374.6 1326.4,378.8 1326.4,391.4 1328.5,395.6 1328.5,397.7 1326.4,401.9 1326.4,408.2 1328.5,406.1 1330.6,393.5 1345.3,389.3 1349.5,383.0 1357.9,380.9 1360.0,378.8 1362.1" style="fill:none;stroke:#ff5959;stroke-width:2"/>
<polyline points="299.9 175.4,301.7 177.2,301.7 180.8,303.5 189.7,303.5 193.2,305.3 205.7,305.3 211.1,305.3 218.2" style="fill:none;stroke:#ffffff;stroke-width:2"/>
<polyline points="326.7 177.2,326.7 182.5,328.4 223.5" style="fill:none;stroke:#ffffff;stroke-width:2"/>
<polyline points="323.1 179.0,326.7 177.2,333.8 177.2,335.6 175.4,340.9 175.4,355.2 177.2,358.7 179.0,360.5 180.8,362.3 184.3,364.1 189.7,362.3 193.2,362.3 196.8,358.7 203.9,353.4 209.3,349.8 214.6,348.0 216.4,342.7 220.0" style="fill:none;stroke:#ffffff;stroke-width:2"/>
<polyline points="109.2 168.3,107.4 170.1,103.9 171.9,96.7 179.0,93.2 180.8,86.0 187.9,77.1 198.6,73.6 202.2,73.6 205.7,75.3 212.8,77.1 216.4,78.9 218.2,82.5 223.5,84.3 227.1,82.5 230.7,82.5 234.2,80.7 236.0,78.9 241.4,77.1 243.1,77.1 246.7,78.9 250.3,84.3 250.3,116.3 252.1,121.7 253.8" style="fill:none;stroke:#ffffff;stroke-width:2"/>
<polyline points="351.6 166.5,357.0 164.7,362.3 164.7,369.4 166.5,373.0 168.3,374.8 170.1,374.8 173.6,373.0 179.0,371.2 180.8,367.6 186.1,365.9 187.9,365.9 191.5,367.6 193.2,371.2 195.0,373.0 196.8,376.6 202.2,376.6 205.7,374.8 211.1,373.0 212.8,371.2 218.2,367.6 221.8,364.1 227.1,362.3 228.9,360.5 236.0" style="fill:none;stroke:#ffffff;stroke-width:2"/>
<polyline points="554.7 515.9,555.7 516.9" style="fill:none;stroke:#ffffff;stroke-width:2"/>
<polyline points="555.7 548.9,556.7 548.9" style="fill:none;stroke:#ffffff;stroke-width:2"/>
<polyline points="596.7 500.9,595.7 502.9,593.7 504.9,590.7 506.9,588.7 508.9,587.7 510.9,586.7 513.9,587.7 515.9,589.7 518.9,591.7 520.9,592.7 522.9,591.7 524.9,589.7 526.9,585.7 529.9,583.7 530.9,580.7 532.9,578.7 533.9,577.7 536.9,578.7 538.9,580.7 541.9,582.7 542.9,585.7 545.9,591.7 552.9,592.7 554.9,594.7 556.9,592.7 559.9,590.7 564.9,592.7 566.9" style="fill:none;stroke:#ffffff;stroke-width:2"/>
<polyline points="507.7 573.9,502.7 574.9,499.7 574.9,497.7 575.9,493.7 576.9,489.7 579.9,487.7 580.9,485.7 582.9,480.7 588.9,479.7 590.9,479.7 593.9,478.7 597.9,479.7 600.9,481.7 603.9,483.7 605.9,487.7 607.9,491.7 608.9,496.7 607.9,500.7 607.9,502.7 606.9,504.7 606.9" style="fill:none;stroke:#ffffff;stroke-width:2"/>
<polyline points="526.7 581.9,520.7 583.9,518.7 584.9,516.7 586.9,512.7 591.9,513.7 596.9,517.7 596.9,519.7 595.9,524.7 591.9,525.7 587.9,524.7 584.9,523.7 583.9" style="fill:none;stroke:#ffffff;stroke-width:2"/>
<polyline points="540.7 580.9,538.7 582.9,537.7 585.9,536.7 589.9,536.7 593.9,538.7 592.9,540.7 590.9,545.7 587.9,548.7 587.9,550.7 589.9,550.7 592.9,551.7 595.9" style="fill:none;stroke:#ffffff;stroke-width:2"/>
<polyline points="566.7 580.9,565.7 582.9,564.7 586.9,564.7 590.9,567.7 591.9,571.7 589.9,576.7 588.9,578.7 590.9,578.7 594.9,577.7 596.9,577.7 599.9,580.7 599.9" style="fill:none;stroke:#ffffff;stroke-width:2"/>
<polyline points="596.7 593.9,600.7 593.9,601.7 591.9,602.7 587.9,598.7 586.9,595.7 588.9,594.7 591.9,593.7 597.9,594.7 599.9,595.7 602.9,598.7 606.9,601.7 606.9,604.7 605.9,606.7 604.9,607.7 602.9" style="fill:none;stroke:#ffffff;stroke-width:2"/>
<polyline points="626.7 585.9,620.7 586.9,618.7 587.9,615.7 589.9,613.7 592.9,612.7 595.9,611.7 601.9,612.7 605.9,615.7 608.9,618.7 610.9,620.7 609.9,623.7 608.9,626.7 605.9,631.7 600.9" style="fill:none;stroke:#ffffff;stroke-width:2"/>
<polyline points="643.7 576.9,644.7 574.9,643.7 579.9,642.7 586.9,641.7 589.9,640.7 594.9,640.7 597.9,641.7 603.9,642.7 607.9" style="fill:none;stroke:#ffffff;stroke-width:2"/>
<polyline points="638.7 605.9,641.7 604.9,644.7 604.9,649.7 603.9,653.7 603.9,659.7 602.9,662.7 602.9,664.7 601.9,667.7 600.9" style="fill:none;stroke:#ffffff;stroke-width:2"/>
<polyline points="671.7 598.9,674.7 597.9,676.7 595.9,678.7 591.9,679.7 588.9,676.7 590.9,672.7 594.9,670.7 598.9,668.7 601.9,667.7 604.9,668.7 606.9,670.7 608.9,674.7 608.9,680.7 606.9,685.7 603.9,687.7 602.9,692.7 599.9,694.7 597.9,696.7 596.9,700.7 596.9,697.7 594.9,695.7 593.9,692.7 594.9,687.7 596.9,685.7 598.9,683.7 601.9,683.7 604.9,686.7 606.9,687.7 604.9,691.7 597.9,694.7 591.9,696.7 589.9,697.7 586.9,700.7 582.9,703.7 579.9,710.7 574.9,711.7 576.9,711.7 582.9,710.7 590.9,709.7 604.9,710.7 610.9,711.7 612.9,713.7 614.9,716.7 615.9,717.7 616.9" style="fill:none;stroke:#ffffff;stroke-width:2"/>
<polyline points="741.7 573.9,739.7 577.9,738.7 582.9,737.7 586.9,736.7 589.9,736.7 594.9,735.7 598.9,736.7 600.9,737.7 605.9,738.7 608.9,740.7 609.9,743.7 609.9,746.7 608.9,751.7 603.9,755.7 598.9,757.7 595.9,758.7 592.9,760.7 587.9,762.7 583.9,762.7 580.9,763.7 578.9,763.7 575.9,763.7 573.9" style="fill:none;stroke:#ffffff;stroke-width:2"/>
<polyline points="792.7 573.9,785.7 574.9,783.7 576.9,781.7 577.9,780.7 581.9,781.7 583.9,782.7 587.9,785.7 591.9,786.7 594.9,787.7 598.9,788.7 605.9,787.7 607.9,784.7 610.9,780.7 611.9,777.7 610.9,776.7 609.9" style="fill:none;stroke:#ffffff;stroke-width:2"/>
<polyline points="798.7 606.9,802.7 604.9,805.7 603.9,809.7 601.9,812.7 598.9,815.7 594.9,814.7 591.9,812.7 589.9,809.7 589.9,804.7 592.9,802.7 595.9,801.7 599.9,802.7 603.9,803.7 605.9,806.7 606.9,811.7 606.9" style="fill:none;stroke:#ffffff;stroke-width:2"/>
<polyline points="827.7 593.9,826.7 598.9,824.7 605.9,823.7 608.9,822.7 613.9,824.7 611.9,828.7 608.9,830.7 606.9,843.7 594.9,846.7 592.9" style="fill:none;stroke:#ffffff;stroke-width:2"/>
<polyline points="867.7 588.9,861.7 589.9,859.7 590.9,856.7 592.9,855.7 594.9,856.7 597.9,857.7 599.9,859.7 602.9,860.7 604.9,862.7 606.9,863.7 609.9,862.7 613.9,860.7 616.9,858.7 618.9,853.7 620.9,851.7 621.9,848.7 623.9,844.7 624.9" style="fill:none;stroke:#ffffff;stroke-width:2"/>
<polyline points="926.7 579.9,914.7 578.9,909.7 578.9,899.7 579.9,897.7 580.9,896.7 583.9,896.7 587.9,895.7 604.9,894.7 613.9,892.7 628.9,891.7 632.9,891.7 636.9,893.7 638.9,896.7 639.9,900.7 639.9,904.7 640.9,907.7 640.9,910.7 641.9,921.7 644.9,923.7 645.9,928.7 646.9,930.7 644.9,931.7 642.9" style="fill:none;stroke:#ffffff;stroke-width:2"/>
<polyline points="952.7 632.9,950.7 633.9" style="fill:none;stroke:#ffffff;stroke-width:2"/>
<polyline points="972.7 628.9,973.7 627.9" style="fill:none;stroke:#ffffff;stroke-width:2"/>
<polyline points="984.7 637.9,985.7 636.9" style="fill:none;stroke:#ffffff;stroke-width:2"/>
<polyline points="1026.7 595.9,1022.7 596.9,1020.7 597.9,1017.7 599.9,1014.7 603.9,1013.7 605.9,1011.7 608.9,1008.7 614.9,1004.7 623.9,1002.7 628.9,1002.7 631.9,1004.7 639.9,1007.7 640.9,1012.7 637.9,1015.7 635.9,1017.7 632.9,1020.7 627.9,1024.7 627.9,1028.7 625.9,1033.7 624.9,1036.7 622.9,1038.7 621.9,1041.7 620.9" style="fill:none;stroke:#ffffff;stroke-width:2"/>
<polyline points="1065.7 598.9,1060.7 599.9,1056.7 602.9,1054.7 604.9,1049.7 610.9,1046.7 614.9,1044.7 619.9,1043.7 623.9,1044.7 627.9,1045.7 630.9,1048.7 633.9,1051.7 635.9,1056.7 634.9,1058.7 633.9,1061.7 631.9,1062.7 629.9,1063.7 626.9,1066.7 625.9,1072.7 624.9,1075.7 624.9,1081.7 623.9,1083.7 623.9" style="fill:none;stroke:#ffffff;stroke-width:2"/>
<polyline points="1091.7 608.9,1091.7 613.9,1090.7 615.9,1090.7 618.9,1089.7 620.9,1089.7 624.9,1088.7 627.9,1088.7 631.9,1088.7 637.9" style="fill:none;stroke:#ffffff;stroke-width:2"/>
<polyline points="1089.7 599.9,1092.7 598.9,1096.7 599.9,1102.7 601.9,1104.7 602.9,1106.7 605.9,1105.7 608.9,1102.7 612.9,1101.7 614.9,1099.7 617.9,1097.7 619.9,1096.7 622.9,1096.7 625.9,1097.7 627.9,1099.7 629.9,1104.7 632.9,1106.7 634.9" style="fill:none;stroke:#ffffff;stroke-width:2"/>
<polyline points="1139.7 599.9,1135.7 601.9,1132.7 604.9,1130.7 607.9,1129.7 611.9,1130.7 613.9,1132.7 616.9,1135.7 620.9,1137.7 624.9,1138.7 627.9,1138.7 630.9,1136.7 634.9,1133.7 638.9,1129.7 641.9,1126.7 641.9,1124.7 642.9,1120.7 643.9" style="fill:none;stroke:#ffffff;stroke-width:2"/>
<polyline points="1184.7 598.9,1183.7 600.9,1183.7 604.9,1182.7 621.9,1181.7 627.9,1180.7 632.9,1179.7 636.9,1178.7 638.9,1176.7 641.9,1176.7 637.9,1177.7 635.9,1179.7 633.9,1186.7 627.9,1190.7 628.9,1191.7 631.9,1191.7 634.9,1190.7 637.9,1188.7 639.9,1186.7 640.9" style="fill:none;stroke:#ffffff;stroke-width:2"/>
<polyline points="1210.7 623.9,1208.7 625.9,1207.7 627.9,1207.7 630.9,1206.7 633.9,1204.7 638.9,1203.7 641.9,1203.7 640.9" style="fill:none;stroke:#ffffff;stroke-width:2"/>
<polyline points="1225.7 599.9,1224.7 602.9,1223.7 604.9,1223.7 608.9,1222.7 612.9,1222.7 615.9,1220.7 622.9,1219.7 625.9,1218.7 630.9,1217.7 632.9" style="fill:none;stroke:#ffffff;stroke-width:2"/>
<polyline points="1214.7 631.9,1216.7 630.9,1220.7 629.9,1223.7 627.9,1227.7 626.9,1229.7 625.9,1235.7 623.9,1237.7 622.9,1239.7 621.9" style="fill:none;stroke:#ffffff;stroke-width:2"/>
<polyline points="1261.7 615.9,1257.7 614.9,1255.7 615.9,1251.7 616.9,1249.7 617.9,1243.7 621.9,1241.7 623.9,1240.7 626.9,1240.7 630.9,1242.7 635.9,1243.7 637.9,1245.7 640.9,1246.7 643.9,1247.7 648.9,1245.7 650.9,1238.7 649.9,1236.7 648.9,1231.7 645.9" style="fill:none;stroke:#ffffff;stroke-width:2"/>
<polyline points="1205.7 598.9,1203.7 597.9,1204.7 598.9" style="fill:none;stroke:#ffffff;stroke-width:2"/>
<polyline points="1274.7 595.9,1277.7 596.9,1281.7 596.9,1286.7 597.9,1288.7 598.9,1292.7 598.9,1296.7 599.9,1299.7 600.9,1303.7 600.9,1305.7 602.9,1303.7 604.9,1304.7 607.9,1304.7 610.9,1303.7 626.9,1302.7 629.9,1299.7 640.9,1298.7 644.9,1297.7 647.9,1296.7 649.9,1296.7 653.9,1297.7 655.9,1298.7 658.9,1300.7 662.9,1301.7 666.9,1299.7 667.9,1295.7 666.9,1287.7 666.9,1284.7 665.9,1277.7 665.9,1269.7 664.9,1266.7 665.9,1261.7 665.9,1256.7 666.9,1257.7 669.9" style="fill:none;stroke:#ffffff;stroke-width:2"/>
<polyline points="483.7 647.9,482.7 650.9,482.7 654.9,481.7 671.9,480.7 678.9,479.7 681.9,478.7 686.9,477.7 690.9,478.7 689.9" style="fill:none;stroke:#ffffff;stroke-width:2"/>
<polyline points="480.7 649.9,482.7 647.9,485.7 647.9,487.7 648.9,490.7 649.9,493.7 652.9,496.7 657.9,496.7 661.9,494.7 664.9,491.7 667.9,487.7 672.9,489.7 674.9,492.7 675.9,496.7 677.9,499.7 678.9,502.7 678.9,504.7 679.9,506.7 679.9" style="fill:none;stroke:#ffffff;stroke-width:2"/>
<polyline points="520.7 658.9,517.7 657.9,515.7 658.9,513.7 661.9,512.7 663.9,512.7 666.9,511.7 668.9,512.7 671.9,513.7 673.9,515.7 675.9,517.7 674.9,521.7 671.9,522.7 668.9,523.7 666.9,522.7 663.9,520.7 661.9,518.7 663.9" style="fill:none;stroke:#ffffff;stroke-width:2"/>
<polyline points="541.7 669.9,538.7 668.9,534.7 668.9,532.7 669.9,529.7 672.9,528.7 675.9,528.7 678.9,530.7 680.9,534.7 682.9,538.7 682.9,541.7 681.9,544.7 681.9,546.7 679.9,547.7 677.9,547.7 674.9,545.7 672.9,543.7 672.9" style="fill:none;stroke:#ffffff;stroke-width:2"/>
<polyline points="560.7 670.9,559.7 673.9,559.7 677.9,562.7 677.9,563.7 675.9,565.7 674.9,570.7 672.9,572.7 673.9,575.7 675.9,577.7 678.9,579.7 676.9,582.7 675.9,584.7 673.9,587.7 671.9,589.7 670.9,593.7 671.9,596.7 674.9,598.7 677.9,599.7 680.9,601.7 681.9,602.7 682.9" style="fill:none;stroke:#ffffff;stroke-width:2"/>
<polyline points="664.7 646.9,662.7 647.9,659.7 649.9,656.7 649.9,654.7 650.9,650.7 651.9,647.7 652.9,645.7 655.9,644.7 658.9,644.7 661.9,645.7 667.9,645.7 670.9,646.7 674.9,645.7 676.9,644.7 680.9,642.7 683.9,639.7 686.9,636.7 688.9,633.7 689.9,626.7 691.9,624.7 691.9" style="fill:none;stroke:#ffffff;stroke-width:2"/>
<polyline points="666.7 683.9,670.7 680.9,673.7 679.9,675.7 677.9,678.7 675.9,680.7 672.9,681.7 669.9,676.7 669.9,672.7 671.9,668.7 675.9,664.7 680.9,664.7 684.9,666.7 687.9,670.7 688.9,674.7 688.9,676.7 687.9,679.7 686.9,684.7 684.9,689.7 681.9,691.7 679.9,694.7 675.9,697.7 672.9,698.7 670.9,701.7 663.9,702.7 661.9,703.7 658.9,704.7 656.9,706.7 654.9,707.7 657.9,706.7 661.9,705.7 664.9,703.7 669.9,702.7 672.9,700.7 676.9,699.7 680.9,699.7 684.9" style="fill:none;stroke:#ffffff;stroke-width:2"/>
<polyline points="697.7 674.9,701.7 673.9,704.7 672.9,709.7 671.9,713.7 670.9,719.7 669.9,723.7 669.9" style="fill:none;stroke:#ffffff;stroke-width:2"/>
<polyline points="742.7 654.9,740.7 658.9,738.7 663.9,736.7 669.9,733.7 676.9,731.7 683.9,730.7 686.9,728.7 691.9,727.7 695.9,727.7 698.9" style="fill:none;stroke:#ffffff;stroke-width:2"/>
<polyline points="721.7 682.9,724.7 681.9,730.7 681.9,735.7 680.9,739.7 680.9,746.7 679.9,751.7 679.9" style="fill:none;stroke:#ffffff;stroke-width:2"/>
<polyline points="763.7 678.9,763.7 683.9,762.7 685.9,761.7 688.9,760.7 690.9,763.7 691.9" style="fill:none;stroke:#ffffff;stroke-width:2"/>
<polyline points="782.7 681.9,783.7 684.9,785.7 688.9,787.7 688.9" style="fill:none;stroke:#ffffff;stroke-width:2"/>
<polyline points="816.7 676.9,815.7 674.9,812.7 675.9,808.7 677.9,806.7 680.9,805.7 683.9,804.7 685.9,803.7 689.9,799.7 700.9,797.7 702.9,794.7 704.9,791.7 705.9,787.7 703.9,789.7 701.9,793.7 701.9,797.7 700.9,800.7 699.9,806.7 698.9,811.7 696.9,815.7 694.9,818.7 691.9,821.7 689.9,824.7 686.9,827.7 682.9,830.7 679.9,833.7 677.9,835.7 675.9,838.7 674.9,840.7 672.9,840.7 676.9,838.7 678.9,837.7 681.9,837.7 684.9,836.7 686.9,837.7 689.9,838.7 693.9,839.7 696.9,840.7 698.9,839.7 700.9,834.7 707.9,831.7 709.9,828.7 710.9,823.7 711.9" style="fill:none;stroke:#ffffff;stroke-width:2"/>
<polyline points="779.7 677.9,778.7 680.9,776.7 684.9,774.7 687.9,773.7 690.9,771.7 694.9,773.7 693.9,774.7 691.9,778.7 688.9,780.7 686.9,784.7 683.9,787.7 684.9,790.7 687.9,791.7 690.9,793.7 694.9" style="fill:none;stroke:#ffffff;stroke-width:2"/>
<polyline points="512.7 725.9,508.7 726.9,508.7 729.9,509.7 732.9,511.7 730.9" style="fill:none;stroke:#ffffff;stroke-width:2"/>
<polyline points="536.7 727.9,535.7 724.9,532.7 725.9,531.7 727.9,533.7 729.9,536.7 728.9,538.7 726.9,536.7 725.9" style="fill:none;stroke:#ffffff;stroke-width:2"/>
<polyline points="562.7 727.9,560.7 725.9,558.7 726.9,559.7 729.9,563.7 729.9,565.7 727.9,566.7 726.9" style="fill:none;stroke:#ffffff;stroke-width:2"/>
<polyline points="456.7 730.9,457.7 733.9,459.7 738.9,461.7 740.9,467.7 745.9,469.7 747.9,472.7 749.9,474.7 751.9,473.7 755.9,469.7 763.9,467.7 768.9,465.7 771.9,463.7 776.9,462.7 781.9,463.7 783.9,465.7 786.9,469.7 790.9,471.7 791.9,474.7 793.9,479.7 795.9,485.7 798.9,487.7 801.9,486.7 805.9,484.7 807.9,479.7 811.9,470.7 816.9,461.7 820.9,456.7 822.9,451.7 823.9,443.7 826.9,438.7 827.9,437.7 828.9" style="fill:none;stroke:#ffffff;stroke-width:2"/>
<polyline points="410.5 452.2,409.5 455.2,409.5 459.2,408.5 463.2,408.5 465.2,407.5 472.2,407.5 476.2,406.5 479.3,406.5 482.3,406.5 486.3" style="fill:none;stroke:#5784ff;stroke-width:2"/>
<polyline points="405.5 452.2,406.5 454.2,408.5 454.2,411.6 455.2,413.6 455.2,415.6 456.2,420.6 456.2,424.6 458.2,426.6 458.2,429.6 460.2,431.6 462.2,431.6 464.2,430.6 467.2,428.6 470.2,426.6 472.2,415.6 480.3,413.6 482.3,410.5 483.3,406.5 485.3,405.5 484.3" style="fill:none;stroke:#5784ff;stroke-width:2"/>
<polyline points="444.7 473.2,440.7 472.2,438.7 472.2,434.6 473.2,431.6 473.2,428.6 475.2,426.6 477.2,426.6 479.3,430.6 480.3,433.6 480.3,438.7 479.3,441.7 478.2,443.7 476.2,445.7 475.2,445.7 473.2,444.7 470.2,443.7 469.2" style="fill:none;stroke:#5784ff;stroke-width:2"/>
<polyline points="476.8 465.2,473.8 464.2,471.8 464.2,468.8 465.2,465.8 467.2,461.7 468.2,457.7 471.2,454.7 474.2,453.7 476.2,453.7 478.2,455.7 480.3,459.7 482.3,463.7 483.3,466.8 483.3,479.8 482.3" style="fill:none;stroke:#5784ff;stroke-width:2"/>
<polyline points="1480.4 267.1,1478.3 270.2,1477.2 272.3,1474.1 277.5,1473.1 282.7,1471.0 286.9,1470.0 293.1,1470.0 295.2,1475.2 296.2,1479.3 294.1,1484.5 290.0,1493.9 280.6,1498.0 274.4,1499.1 272.3,1500.1 269.2,1499.1 268.2" style="fill:none;stroke:#ffffff;stroke-width:2"/>
<polyline points="1524.0 268.2,1520.9 269.2,1518.8 269.2,1515.7 270.2,1513.6 272.3,1512.6 275.4,1512.6 277.5,1514.6 279.6,1515.7 281.7,1516.7 285.8,1515.7 287.9,1513.6 290.0,1511.5 293.1,1509.4 294.1,1502.2 297.2,1503.2 295.2" style="fill:none;stroke:#ffffff;stroke-width:2"/>
<polyline points="1523.0 288.9,1526.1 287.9,1529.2 287.9,1532.3 286.9,1536.5 284.8,1538.5 282.7,1535.4 280.6,1531.3 281.7,1529.2 282.7,1526.1 285.8,1525.0 288.9,1530.2 290.0,1533.3 288.9,1540.6 285.8,1542.7 284.8,1543.7 283.7" style="fill:none;stroke:#ffffff;stroke-width:2"/>
<polyline points="1553.1 278.5,1551.0 281.7,1547.9 283.7,1544.8 287.9,1541.7 291.0,1537.5 296.2,1540.6 294.1,1542.7 293.1,1546.9 288.9,1554.1 283.7,1558.3 280.6,1560.4 279.6,1563.5 276.5,1565.6 276.5,1566.6 275.4" style="fill:none;stroke:#ffffff;stroke-width:2"/>
<polyline points="1593.6 264.0,1592.6 266.1,1589.5 269.2,1588.4 271.3,1586.3 276.5,1583.2 282.7,1581.1 285.8,1580.1 288.9,1577.0 294.1,1574.9 298.3,1573.9 302.4,1572.8 305.6,1575.9 301.4,1577.0 300.4" style="fill:none;stroke:#ffffff;stroke-width:2"/>
<polyline points="1618.5 265.0,1617.5 268.2,1616.5 274.4,1613.3 280.6,1611.3 285.8,1606.1 295.2,1604.0 297.2,1601.9 300.4,1601.9 297.2" style="fill:none;stroke:#ffffff;stroke-width:2"/>
<polyline points="1620.6 266.1,1620.6 268.2,1621.7 270.2,1623.7 272.3,1625.8 273.3,1627.9 275.4,1632.0 277.5,1634.1 279.6,1635.2 281.7,1636.2 284.8,1635.2 286.9,1632.0 291.0,1630.0 292.0,1625.8 295.2,1622.7 297.2,1617.5 299.3,1615.4 300.4,1607.1 303.5" style="fill:none;stroke:#ffffff;stroke-width:2"/>
<polyline points="1452.6 143.6,1452.6 146.0,1451.8 149.3,1450.2 155.0,1447.7 161.5,1446.9 164.7,1446.1 170.4,1445.3 172.8,1445.3 177.7,1446.1 182.6,1448.5 185.8,1451.0 187.4,1455.8 188.3,1460.7 188.3,1464.8 187.4,1468.0 186.6,1475.3 184.2,1481.8 182.6,1485.9 180.9,1487.5 180.1" style="fill:none;stroke:#ffffff;stroke-width:2"/>
<polyline points="1515.9 159.8,1513.5 159.0,1507.0 160.6,1502.1 163.1,1498.1 165.5,1495.6 168.0,1492.4 172.8,1492.4 175.3,1494.0 177.7,1496.4 177.7,1498.9 176.9,1502.9 174.5,1504.6 172.8,1509.4 165.5,1510.3 163.1,1508.6 159.8,1506.2 159.8" style="fill:none;stroke:#ffffff;stroke-width:2"/>
<polyline points="1529.7 142.8,1528.9 145.2,1527.3 148.5,1524.9 152.5,1522.4 157.4,1519.2 163.1,1512.7 175.3,1511.1 177.7,1510.3 180.1,1513.5 177.7,1517.6 174.5,1523.2 169.6,1527.3 167.1,1530.6 165.5,1533.8 164.7,1533.8 168.8,1532.2 172.0,1528.9 175.3,1523.2 179.3,1519.2 181.8,1516.7 182.6,1515.9 180.1" style="fill:none;stroke:#ffffff;stroke-width:2"/>
<polyline points="1555.7 150.1,1554.1 152.5,1551.7 155.8,1548.4 159.8,1546.0 163.9,1544.4 166.3,1541.9 170.4,1540.3 175.3,1538.7 178.5,1541.9 176.1,1543.5 174.5,1548.4 171.2,1552.5 168.8,1554.9 168.8,1556.5 171.2,1554.9 173.6,1553.3 175.3,1550.0 177.7,1547.6 179.3,1543.5 180.9,1541.1 182.6,1539.5 183.4" style="fill:none;stroke:#ffffff;stroke-width:2"/>
<polyline points="1573.6 163.9,1572.0 165.5,1569.5 168.8,1567.1 173.6,1564.7 176.9,1563.0 179.3,1561.4 180.9,1560.6 183.4,1559.8 184.2" style="fill:none;stroke:#ffffff;stroke-width:2"/>
<polyline points="1573.6 179.3,1577.7 177.7,1580.9 176.1,1585.8 174.5,1592.3 172.8,1597.1 170.4,1599.6 168.8,1602.0 166.3,1603.6 163.1,1601.2 160.6,1598.8 160.6,1595.5 161.5,1590.7 163.1,1585.8 166.3,1579.3 171.2,1576.8 176.1,1577.7 180.1,1580.1 181.8,1584.2 183.4,1589.0 183.4,1594.7 182.6,1597.1 181.8,1602.0 179.3,1610.1 174.5,1612.6 172.8" style="fill:none;stroke:#ffffff;stroke-width:2"/>
<polyline points="1641.0 155.0,1638.6 154.1,1635.3 154.1,1632.1 155.0,1627.2 156.6,1624.8 158.2,1623.1 160.6,1623.1 165.5,1624.8 168.8,1627.2 174.5,1628.8 176.9,1628.8 181.8,1627.2 183.4,1624.8 185.0,1620.7 186.6,1617.5 186.6,1613.4 187.4,1611.0 187.4,1602.0 188.3,1602.8 189.9" style="fill:none;stroke:#ffffff;stroke-width:2"/>
<polyline points="1659.7 156.6,1657.2 160.6" style="fill:none;stroke:#ffffff;stroke-width:2"/>
<polyline points="1652.4 189.9,1649.9 190.7,1652.4 188.3,1653.2 187.4" style="fill:none;stroke:#ffffff;stroke-width:2"/>
<polyline points="1702.7 146.8,1698.7 147.7,1694.6 149.3,1691.4 150.9,1688.9 151.7,1686.5 153.3,1684.9 155.8,1686.5 158.2,1688.9 160.6,1693.8 164.7,1693.8 168.0,1691.4 169.6,1689.7 171.2,1686.5 173.6,1681.6 175.3,1680.0 176.9,1675.9 178.5,1674.3 180.9,1677.5 183.4,1680.0 184.2,1693.8 189.1,1697.0 189.9,1697.8 193.1,1695.4 194.8,1689.7 198.0,1687.3 198.8,1684.0 200.4,1680.8 201.3" style="fill:none;stroke:#ffffff;stroke-width:2"/>
<polyline points="199.5 -24.1,196.5 -25.1,191.5 -24.1,188.5 -22.1,181.5 -19.1,171.5 -13.1,166.5 -9.1,162.5 -5.1,161.5 -3.1,159.5 1.9,160.5 4.9,164.5 8.9,166.5 9.9,171.5 10.9,174.5 11.9,179.5 11.9,192.5 10.9,194.5 9.9" style="fill:none;stroke:#ff9500;stroke-width:2"/>
<polyline points="225.5 -3.1,221.5 -4.1,218.5 -4.1,215.5 -3.1,211.5 -2.1,208.5 -1.1,206.5 1.9,205.5 4.9,208.5 5.9,213.5 4.9,216.5 3.9,219.5 0.9,220.5 -1.1,221.5 -4.1,220.5 -5.1" style="fill:none;stroke:#ff9500;stroke-width:2"/>
<polyline points="246.5 -19.1,247.5 -15.1,246.5 -12.1,245.5 -10.1,242.5 -3.1,240.5 0.9,237.5 4.9,235.5 7.9,235.5 9.9" style="fill:none;stroke:#ff9500;stroke-width:2"/>
<polyline points="268.5 -20.1,267.5 -17.1,265.5 -10.1,265.5 -5.1,264.5 -0.1,263.5 3.9,261.5 6.9,258.5 9.9,254.5 13.9" style="fill:none;stroke:#ff9500;stroke-width:2"/>
<polyline points="1552.9 482.4,1555.4 484.9,1561.7 486.1,1567.9 488.6,1571.7 488.6,1575.4 489.9,1587.9 493.6,1593.0 496.2,1596.7 498.7,1596.7 501.2,1595.5 503.7,1591.7 506.2,1589.2 507.4,1580.4 512.4,1577.9 514.9,1577.9 517.4,1580.4 519.9,1581.7 522.4,1584.2 524.9,1585.4 530.0,1585.4 532.5,1581.7 536.2,1575.4 540.0,1570.4 543.7,1566.7 543.7,1562.9 545.0,1565.4 545.0,1567.9 545.0" style="fill:none;stroke:#ffffff;stroke-width:2"/>
<polyline points="1595.5 134.4,1589.2 135.6,1586.7 136.9,1584.2 139.4,1581.7 144.4,1579.2 146.9,1577.9 149.4,1577.9 151.9,1576.7 158.1,1574.2 161.9,1570.4 164.4,1567.9 166.9,1570.4 169.4,1572.9 169.4,1575.4 171.9,1572.9 175.7,1570.4 181.9,1571.7 184.4,1574.2 186.9,1576.7 188.2,1580.4 189.4,1582.9 191.9,1585.4 191.9" style="fill:none;stroke:#ffffff;stroke-width:2"/>
<polyline points="1767.0 141.9,1767.0 144.4,1768.2 146.9,1770.7 149.4,1772.0 153.1,1772.0 158.1,1770.7 161.9,1770.7 164.4,1769.5 168.2,1769.5 170.7,1770.7 174.4,1773.2 176.9,1775.7 178.2,1773.2 179.4,1770.7 179.4,1768.2 180.7,1765.7 180.7,1763.2 183.2,1763.2 185.7,1762.0 191.9,1759.5 194.4,1755.7 195.7,1749.4 198.2,1746.9 198.2,1743.2 199.5,1740.7 200.7,1739.4 198.2" style="fill:none;stroke:#ffffff;stroke-width:2"/>
<polyline points="1869.8 249.8,1866.8 248.8,1861.8 249.8,1858.8 251.8,1851.8 254.8,1841.8 260.8,1836.8 264.8,1832.8 268.8,1831.8 270.8,1829.8 275.8,1830.8 278.8,1834.8 282.8,1836.8 283.8,1841.8 284.8,1844.8 285.8,1849.8 285.8,1862.8 284.8,1864.8 283.8" style="fill:none;stroke:#ff9500;stroke-width:2"/>
<polyline points="1895.8 270.8,1891.8 269.8,1888.8 269.8,1885.8 270.8,1881.8 271.8,1878.8 272.8,1876.8 275.8,1875.8 278.8,1878.8 279.8,1883.8 278.8,1886.8 277.8,1889.8 274.8,1890.8 272.8,1891.8 269.8,1890.8 268.8" style="fill:none;stroke:#ff9500;stroke-width:2"/>
<polyline points="1916.8 254.8,1917.8 258.8,1916.8 261.8,1915.8 263.8,1912.8 270.8,1910.8 274.8,1907.8 278.8,1905.8 281.8,1905.8 283.8" style="fill:none;stroke:#ff9500;stroke-width:2"/>
<polyline points="1938.8 253.8,1937.8 256.8,1935.8 263.8,1935.8 268.8,1934.8 273.8,1933.8 277.8,1931.8 280.8,1928.8 283.8,1924.8 287.8" style="fill:none;stroke:#ff9500;stroke-width:2"/>
<polyline points="623.2 555.1,624.2 556.1" style="fill:none;stroke:#ffffff;stroke-width:2"/>
<polyline points="624.2 588.1,625.2 588.1" style="fill:none;stroke:#ffffff;stroke-width:2"/>
<polyline points="665.2 540.1,664.2 542.1,662.2 544.1,659.2 546.1,657.2 548.1,656.2 550.1,655.2 553.1,656.2 555.1,658.2 558.1,660.2 560.1,661.2 562.1,660.2 564.1,658.2 566.1,654.2 569.1,652.2 570.1,649.2 572.1,647.2 573.1,646.2 576.1,647.2 578.1,649.2 581.1,651.2 582.1,654.2 585.1,660.2 592.1,661.2 594.1,663.2 596.1,661.2 599.1,659.2 604.1,661.2 606.1" style="fill:none;stroke:#ffffff;stroke-width:2"/>
<polyline points="479.1 491.3,478.1 494.4,478.1 498.4,477.1 502.4,477.1 504.4,476.1 511.4,476.1 515.4,475.1 518.4,475.1 521.5,475.1 525.5" style="fill:none;stroke:#5784ff;stroke-width:2"/>
<polyline points="474.1 491.3,475.1 493.3,477.1 493.3,480.1 494.4,482.1 494.4,484.1 495.4,489.1 495.4,493.1 497.4,495.1 497.4,498.1 499.4,500.2 501.4,500.2 503.4,499.1 506.4,497.1 509.4,495.1 511.4,484.1 519.4,482.1 521.5,479.1 522.5,475.1 524.5,474.1 523.5" style="fill:none;stroke:#5784ff;stroke-width:2"/>
<polyline points="513.2 512.4,509.2 511.4,507.2 511.4,503.2 512.4,500.2 512.4,497.1 514.4,495.1 516.4,495.1 518.4,499.1 519.4,502.2 519.4,507.2 518.4,510.2 517.4,512.2 515.4,514.2 514.4,514.2 512.4,513.2 509.4,512.2 508.4" style="fill:none;stroke:#5784ff;stroke-width:2"/>
<polyline points="545.3 504.4,542.3 503.4,540.3 503.4,537.3 504.4,534.3 506.4,530.3 507.4,526.2 510.4,523.2 513.4,522.2 515.4,522.2 517.4,524.2 519.4,528.3 521.5,532.3 522.5,535.3 522.5,548.3 521.5" style="fill:none;stroke:#5784ff;stroke-width:2"/>
<polyline points="1548.9 306.3,1546.8 309.4,1545.8 311.5,1542.6 316.7,1541.6 321.9,1539.5 326.0,1538.5 332.3,1538.5 334.4,1543.7 335.4,1547.8 333.3,1553.0 329.2,1562.4 319.8,1566.5 313.6,1567.6 311.5,1568.6 308.4,1567.6 307.3" style="fill:none;stroke:#ffffff;stroke-width:2"/>
<polyline points="1592.5 307.3,1589.4 308.4,1587.3 308.4,1584.2 309.4,1582.1 311.5,1581.1 314.6,1581.1 316.7,1583.2 318.8,1584.2 320.8,1585.2 325.0,1584.2 327.1,1582.1 329.2,1580.1 332.3,1578.0 333.3,1570.7 336.4,1571.7 334.4" style="fill:none;stroke:#ffffff;stroke-width:2"/>
<polyline points="1591.5 328.1,1594.6 327.1,1597.7 327.1,1600.8 326.0,1605.0 324.0,1607.1 321.9,1603.9 319.8,1599.8 320.8,1597.7 321.9,1594.6 325.0,1593.6 328.1,1598.8 329.2,1601.9 328.1,1609.1 325.0,1611.2 324.0,1612.3 322.9" style="fill:none;stroke:#ffffff;stroke-width:2"/>
<polyline points="1621.6 317.7,1619.5 320.8,1616.4 322.9,1613.3 327.1,1610.2 330.2,1606.0 335.4,1609.1 333.3,1611.2 332.3,1615.4 328.1,1622.7 322.9,1626.8 319.8,1628.9 318.8,1632.0 315.7,1634.1 315.7,1635.1 314.6" style="fill:none;stroke:#ffffff;stroke-width:2"/>
<polyline points="1662.1 303.2,1661.1 305.3,1658.0 308.4,1656.9 310.5,1654.9 315.7,1651.7 321.9,1649.7 325.0,1648.6 328.1,1645.5 333.3,1643.4 337.5,1642.4 341.6,1641.4 344.7,1644.5 340.6,1645.5 339.5" style="fill:none;stroke:#ffffff;stroke-width:2"/>
<polyline points="1687.1 304.2,1686.0 307.3,1685.0 313.6,1681.9 319.8,1679.8 325.0,1674.6 334.4,1672.5 336.4,1670.4 339.5,1670.4 336.4" style="fill:none;stroke:#ffffff;stroke-width:2"/>
<polyline points="1689.1 305.3,1689.1 307.3,1690.2 309.4,1692.3 311.5,1694.3 312.5,1696.4 314.6,1700.6 316.7,1702.7 318.8,1703.7 320.8,1704.7 324.0,1703.7 326.0,1700.6 330.2,1698.5 331.2,1694.3 334.4,1691.2 336.4,1686.0 338.5,1684.0 339.5,1675.6 342.7" style="fill:none;stroke:#ffffff;stroke-width:2"/>
<polyline points="1664.0 173.5,1657.7 174.8,1655.2 176.0,1652.7 178.5,1650.2 183.6,1647.7 186.1,1646.5 188.6,1646.5 191.1,1645.2 197.3,1642.7 201.1,1638.9 203.6,1636.4 206.1,1638.9 208.6,1641.4 208.6,1643.9 211.1,1641.4 214.9,1638.9 221.1,1640.2 223.6,1642.7 226.1,1645.2 227.4,1649.0 228.6,1651.5 231.1,1654.0 231.1" style="fill:none;stroke:#ffffff;stroke-width:2"/>
<polyline points="1835.5 181.1,1835.5 183.6,1836.7 186.1,1839.2 188.6,1840.5 192.3,1840.5 197.3,1839.2 201.1,1839.2 203.6,1838.0 207.3,1838.0 209.8,1839.2 213.6,1841.7 216.1,1844.3 217.4,1841.7 218.6,1839.2 218.6,1836.7 219.9,1834.2 219.9,1831.7 222.4,1831.7 224.9,1830.5 231.1,1828.0 233.6,1824.2 234.9,1818.0 237.4,1815.5 237.4,1811.7 238.6,1809.2 239.9,1807.9 237.4" style="fill:none;stroke:#ffffff;stroke-width:2"/>
<polyline points="2141.3 281.8,2139.4 283.7,2135.5 285.7,2133.6 287.6,2129.7 289.5,2127.8 291.5,2127.8 295.3,2129.7 301.1,2131.7 305.0,2135.5 310.8,2137.5 314.6,2135.5 318.5,2129.7 324.3,2127.8 330.1,2129.7 332.0,2135.5 339.8,2137.5 341.7,2139.4 347.5" style="fill:none;stroke:#ffffff;stroke-width:2"/>
<polyline points="1897.9 563.9,1899.8 565.8,1905.6 567.8,1907.5 569.7,1911.4 579.4,1909.5 581.3,1901.7 587.1,1899.8 589.0,1897.9 594.8,1899.8 596.8,1905.6 604.5,1907.5 606.4,1911.4 612.2,1913.3 616.1,1915.3 618.0,1913.3 623.8,1911.4 625.7,1907.5 627.7,1897.9 631.5,1894.0 633.5,1895.9 635.4,1897.9 637.3" style="fill:none;stroke:#ffffff;stroke-width:2"/>
<polyline points="1669.9 621.9,1671.8 619.9,1675.7 619.9,1685.3 621.9,1689.2 621.9,1695.0 623.8,1698.8 625.7,1704.6 629.6,1702.7 631.5,1698.8 633.5,1696.9 635.4,1693.0 637.3,1687.3 641.2,1687.3 645.1,1689.2 647.0,1700.8 660.5,1702.7 662.5,1702.7 666.3,1700.8 670.2,1698.8 672.1,1693.0 674.0,1689.2 676.0,1683.4 677.9,1679.5 679.8,1677.6 681.8,1677.6 687.6,1679.5 689.5,1683.4 691.4" style="fill:none;stroke:#ffffff;stroke-width:2"/>
<polyline points="1891.1 330.9,1888.1 329.9,1883.1 330.9,1880.1 332.9,1873.1 335.9,1863.1 341.9,1858.1 345.9,1854.1 349.9,1853.1 351.9,1851.1 356.9,1852.1 359.9,1856.1 363.9,1858.1 364.9,1863.1 365.9,1866.1 366.9,1871.1 366.9,1884.1 365.9,1886.1 364.9" style="fill:none;stroke:#ff9500;stroke-width:2"/>
<polyline points="1917.1 351.9,1913.1 350.9,1910.1 350.9,1907.1 351.9,1903.1 352.9,1900.1 353.9,1898.1 356.9,1897.1 359.9,1900.1 360.9,1905.1 359.9,1908.1 358.9,1911.1 355.9,1912.1 353.9,1913.1 350.9,1912.1 349.9" style="fill:none;stroke:#ff9500;stroke-width:2"/>
<polyline points="1938.1 335.9,1939.1 339.9,1938.1 342.9,1937.1 344.9,1934.1 351.9,1932.1 355.9,1929.1 359.9,1927.1 362.9,1927.1 364.9" style="fill:none;stroke:#ff9500;stroke-width:2"/>
<polyline points="1960.1 334.9,1959.1 337.9,1957.1 344.9,1957.1 349.9,1956.1 354.9,1955.1 358.9,1953.1 361.9,1950.1 364.9,1946.1 368.9" style="fill:none;stroke:#ff9500;stroke-width:2"/>
</svg>